<svg width="36" height="36" viewBox="0 0 36 36" fill="none" xmlns="http://www.w3.org/2000/svg">
<path fill-rule="evenodd" clip-rule="evenodd" d="M23.0414 4.36738C24.8646 2.54421 27.8205 2.54421 29.6437 4.36738L31.6326 6.35629C33.4558 8.17946 33.4558 11.1354 31.6326 12.9586L12.9586 31.6326C12.083 32.5081 10.8956 33 9.65743 33H4.27323C3.57005 33 3 32.43 3 31.7268V26.3426C3 25.1044 3.49186 23.917 4.36738 23.0414L23.0414 4.36738ZM27.8431 6.168C27.0144 5.33928 25.6708 5.33928 24.8421 6.168L21.3526 9.65743L26.3426 14.6474L29.832 11.1579C30.6607 10.3292 30.6607 8.98562 29.832 8.15691L27.8431 6.168ZM24.542 16.448L19.552 11.458L6.168 24.8421C5.77004 25.24 5.54646 25.7798 5.54646 26.3426V30.4535H9.65743C10.2202 30.4535 10.76 30.23 11.1579 29.832L24.542 16.448Z" fill="#162AC1"/>
</svg>
