<svg width="498" height="499" viewBox="0 0 498 499" fill="none" xmlns="http://www.w3.org/2000/svg">
<path d="M170.565 389.938C164.672 389.523 147.325 400.064 217.377 402.471C287.429 404.878 337.976 401.558 353.165 396.827C368.354 392.013 356.734 389.357 350.758 389.108C344.782 388.859 170.565 389.938 170.565 389.938Z" fill="#1C3177"/>
<path d="M308.179 415.667C319.043 415.667 327.85 414.181 327.85 412.347C327.85 410.514 319.043 409.027 308.179 409.027C297.315 409.027 288.508 410.514 288.508 412.347C288.508 414.181 297.315 415.667 308.179 415.667Z" fill="#1C3177"/>
<path d="M142.345 397.573C162.285 397.573 178.45 395.492 178.45 392.925C178.45 390.358 162.285 388.277 142.345 388.277C122.405 388.277 106.24 390.358 106.24 392.925C106.24 395.492 122.405 397.573 142.345 397.573Z" fill="#1C3177"/>
<path d="M367.524 409.941C378.388 409.941 387.195 408.454 387.195 406.621C387.195 404.787 378.388 403.301 367.524 403.301C356.66 403.301 347.853 404.787 347.853 406.621C347.853 408.454 356.66 409.941 367.524 409.941Z" fill="#1C3177"/>
<path d="M161.435 408.281C169.136 408.281 175.379 407.24 175.379 405.957C175.379 404.673 169.136 403.633 161.435 403.633C153.734 403.633 147.491 404.673 147.491 405.957C147.491 407.24 153.734 408.281 161.435 408.281Z" fill="#1C3177"/>
<path d="M384.954 388.277C375.326 388.692 376.986 394.502 398.815 394.917C418.154 395.249 437.161 394.419 441.394 391.846C445.876 389.107 434.837 388.028 427.367 388.36C425.707 388.36 384.954 388.277 384.954 388.277Z" fill="#1C3177"/>
<path d="M62.8309 292.245L72.7909 227.588C73.5379 220.616 79.5139 215.304 86.4859 215.304H88.3119C96.2799 215.304 102.588 222.027 102.09 229.995L94.6199 275.645C94.5369 277.471 95.9479 279.048 97.7739 279.048H121.844C124.5 279.048 126.575 276.973 126.658 274.317L130.393 228.667C130.476 221.114 136.618 215.055 144.171 215.055H148.072C155.542 215.055 158.53 221.031 158.696 228.501L162.597 385.288C162.68 388.774 159.858 391.679 156.289 391.679H133.879C130.476 391.679 127.654 388.94 127.571 385.454L126.492 308.845H77.5219C68.8069 308.762 61.9179 301.043 62.8309 292.245Z" fill="#11208F"/>
<path d="M72.7908 292.245L79.9288 227.588C80.6758 220.616 86.6518 215.304 93.6238 215.304C101.592 215.304 107.9 222.027 107.402 229.995L104.58 275.645C104.497 277.471 105.908 279.048 107.734 279.048H131.804C134.46 279.048 136.535 276.973 136.618 274.317L137.199 228.667C137.282 221.114 143.424 215.055 150.977 215.055H154.878C162.348 215.055 168.49 221.031 168.656 228.501L172.557 385.288C172.64 388.774 169.818 391.679 166.249 391.679H143.839C140.436 391.679 137.614 388.94 137.531 385.454L136.452 308.845H87.4818C78.7668 308.762 71.8778 301.043 72.7908 292.245Z" fill="#162AC1"/>
<path d="M323.119 292.245L333.079 227.588C333.826 220.616 339.802 215.304 346.774 215.304H348.6C356.568 215.304 362.876 222.027 362.378 229.995L354.908 275.645C354.825 277.471 356.236 279.048 358.062 279.048H382.132C384.788 279.048 386.863 276.973 386.946 274.317L390.681 228.667C390.764 221.114 396.906 215.055 404.459 215.055H408.36C415.83 215.055 418.818 221.031 418.984 228.501L422.885 385.288C422.968 388.774 420.146 391.679 416.577 391.679H394.167C390.764 391.679 387.942 388.94 387.859 385.454L386.78 308.845H337.81C329.095 308.762 322.123 301.043 323.119 292.245Z" fill="#11208F"/>
<path d="M333.079 292.245L340.217 227.588C340.964 220.616 346.94 215.304 353.912 215.304C361.88 215.304 368.188 222.027 367.69 229.995L364.868 275.645C364.785 277.471 366.196 279.048 368.022 279.048H392.092C394.748 279.048 396.823 276.973 396.906 274.317L397.487 228.667C397.57 221.114 403.712 215.055 411.265 215.055H415.166C422.636 215.055 428.778 221.031 428.944 228.501L432.845 385.288C432.928 388.774 430.106 391.679 426.537 391.679H404.127C400.724 391.679 397.902 388.94 397.819 385.454L396.74 308.845H347.77C339.055 308.762 332.083 301.043 333.079 292.245Z" fill="#162AC1"/>
<path d="M356.651 383.295C355.738 387.694 351.837 390.765 347.355 390.765H289.089C282.615 390.765 277.967 384.374 279.959 378.481C280.125 378.066 280.291 377.568 280.54 377.153C280.623 376.987 280.789 376.738 280.872 376.572C284.773 370.098 293.488 374.414 293.82 374.58C293.82 374.497 293.654 374.331 293.571 373.999C292.824 372.422 291.247 367.857 295.148 366.446C299.962 364.703 304.61 369.766 304.61 369.766C304.61 369.766 307.266 354.66 318.388 354.66C329.51 354.66 326.024 370.015 326.024 370.015C326.024 370.015 332.166 360.387 337.893 363.209C343.454 366.031 339.553 374.331 339.47 374.58C339.802 374.331 348.6 368.355 354.576 375.244C356.9 377.9 357.149 380.805 356.651 383.295Z" fill="#0F813A"/>
<path d="M346.774 390.766H289.172C282.698 390.766 278.05 384.375 280.042 378.482C280.706 380.225 281.868 382.217 284.026 383.96C289.338 388.359 295.646 384.956 295.646 384.956C295.646 384.956 296.061 377.32 300.626 377.32C305.191 377.32 306.353 380.391 306.353 380.391C306.353 380.391 310.337 372.921 315.898 372.755C321.459 372.589 322.04 380.225 322.04 380.225C322.04 380.225 324.945 377.154 327.601 377.901C330.257 378.648 329.344 383.213 329.344 383.213C329.344 383.213 335.486 380.308 341.545 382.798C345.612 384.541 346.525 388.442 346.774 390.766Z" fill="#11208F"/>
<path d="M356.651 383.295C355.738 387.694 351.837 390.765 347.355 390.765H346.774C346.774 390.765 356.319 382.88 352.335 377.07C348.351 371.343 336.897 377.236 336.648 377.319C336.731 376.904 339.719 367.359 335.901 365.782C332 364.122 324.945 374.414 324.945 374.414C324.945 374.414 325.36 358.561 317.558 357.731C309.175 356.818 305.938 373.335 305.938 373.335C305.938 373.335 300.294 367.11 296.393 368.438C292.575 369.766 294.069 374.746 294.152 374.995L293.571 373.999C292.824 372.422 291.247 367.857 295.148 366.446C299.962 364.703 304.61 369.766 304.61 369.766C304.61 369.766 307.266 354.66 318.388 354.66C329.51 354.66 326.024 370.015 326.024 370.015C326.024 370.015 332.166 360.387 337.893 363.209C343.454 366.031 339.553 374.331 339.47 374.58C339.802 374.331 348.6 368.355 354.576 375.244C356.9 377.9 357.149 380.805 356.651 383.295Z" fill="#CE4F40"/>
<path d="M189.157 390.766C189.157 390.766 187.331 319.137 187.331 277.969C187.331 236.801 208.828 212.316 252.237 212.316C288.01 212.316 303.448 221.28 307.017 279.795C310.586 338.31 312.08 390.766 312.08 390.766H189.157Z" fill="#FFFCE3"/>
<path d="M209.99 390.766C209.99 390.766 208.496 319.137 208.496 277.969C208.496 236.801 226.839 212.316 257.383 212.316C287.927 212.316 307.515 221.28 310.586 279.795C313.657 338.31 314.902 390.766 314.902 390.766H209.99Z" fill="#FFFEF7"/>
<path d="M243.19 321.462C236.467 319.553 231.819 334.742 237.38 338.311C242.941 341.88 251.158 323.703 243.19 321.462Z" fill="#FFFCE3"/>
<path d="M294.982 305.442C290.5 304.197 287.346 314.323 291.081 316.73C294.816 319.054 300.377 306.936 294.982 305.442Z" fill="#FFFCE3"/>
<path d="M240.949 246.844C236.467 245.599 233.313 255.725 237.048 258.132C240.783 260.456 246.344 248.338 240.949 246.844Z" fill="#FFFCE3"/>
<path d="M264.106 261.537C258.877 260.458 255.308 269.256 259.624 271.331C263.94 273.406 270.331 262.865 264.106 261.537Z" fill="#FFFCE3"/>
<path d="M284.607 238.959C278.299 237.216 273.817 251.492 279.129 254.895C284.441 258.298 292.16 241.117 284.607 238.959Z" fill="#FFFCE3"/>
<path d="M286.599 343.042C277.552 340.469 271.244 360.887 278.714 365.784C286.267 370.515 297.389 346.03 286.599 343.042Z" fill="#FFFCE3"/>
<path d="M241.53 320.466C234.807 318.557 230.159 333.746 235.72 337.315C241.281 340.884 249.498 322.707 241.53 320.466Z" fill="#162AC1"/>
<path d="M293.322 304.363C288.84 303.118 285.686 313.244 289.421 315.651C293.156 318.058 298.717 305.857 293.322 304.363Z" fill="#162AC1"/>
<path d="M239.289 245.766C234.807 244.521 231.653 254.647 235.388 257.054C239.123 259.461 244.684 247.26 239.289 245.766Z" fill="#162AC1"/>
<path d="M262.446 260.457C257.217 259.378 253.648 268.176 257.964 270.251C262.28 272.326 268.671 261.785 262.446 260.457Z" fill="#162AC1"/>
<path d="M282.947 237.963C276.639 236.22 272.157 250.496 277.469 253.899C282.781 257.302 290.5 240.038 282.947 237.963Z" fill="#162AC1"/>
<path d="M284.939 341.962C275.892 339.389 269.584 359.806 277.054 364.703C284.607 369.517 295.729 345.033 284.939 341.962Z" fill="#162AC1"/>
<path d="M212.812 251.658C206.089 249.666 201.441 266.017 207.002 269.835C212.563 273.653 220.863 254.065 212.812 251.658Z" fill="#FFFEF7"/>
<path d="M200.445 300.628C194.967 298.968 191.149 312.331 195.714 315.485C200.196 318.64 207.002 302.62 200.445 300.628Z" fill="#FFFEF7"/>
<path d="M222.274 223.023C216.796 221.363 212.978 234.726 217.543 237.88C222.108 241.034 228.831 225.015 222.274 223.023Z" fill="#FFFEF7"/>
<path d="M242.36 303.45H235.471C235.056 303.45 234.89 303.118 234.724 302.703L230.076 293.739L229.827 293.573C229.495 293.573 228.25 293.573 227.918 293.573V302.703C227.918 303.118 227.586 303.45 227.171 303.45H221.112C220.697 303.45 220.365 303.118 220.365 302.703V278.301C220.365 276.475 220.946 276.06 222.523 275.811C224.017 275.562 227.752 275.312 230.408 275.312C237.38 275.312 242.111 277.553 242.111 284.36V284.941C242.111 288.925 239.87 291.332 237.546 292.328L242.941 302.454C243.024 302.62 243.024 302.786 243.024 302.869C242.941 303.201 242.692 303.45 242.36 303.45ZM234.475 284.36C234.475 282.617 233.23 281.703 230.74 281.703C230.491 281.703 228.084 281.786 227.835 281.786V287.763C228.001 287.763 230.325 287.763 230.574 287.763C233.479 287.763 234.475 286.766 234.475 285.023V284.36Z" fill="#162AC1"/>
<path d="M249.83 303.449H249.498C247.672 303.449 246.178 301.955 246.178 300.129C246.178 298.303 247.672 296.809 249.498 296.809H249.83C251.656 296.809 253.15 298.303 253.15 300.129C253.233 301.955 251.739 303.449 249.83 303.449Z" fill="#162AC1"/>
<path d="M264.438 303.45H258.296C257.881 303.45 257.549 303.118 257.549 302.703V276.392C257.549 275.977 257.881 275.645 258.296 275.645H264.438C264.853 275.645 265.185 275.977 265.185 276.392V302.703C265.185 303.118 264.853 303.45 264.438 303.45Z" fill="#162AC1"/>
<path d="M273.236 303.45H272.904C271.078 303.45 269.501 301.956 269.501 300.047C269.501 298.221 270.995 296.727 272.821 296.727H273.153C274.979 296.727 276.556 298.221 276.556 300.13C276.556 301.956 275.062 303.45 273.236 303.45Z" fill="#162AC1"/>
<path d="M291.081 294.403C290.251 294.403 289.421 294.32 288.425 294.32V302.703C288.425 303.118 288.093 303.45 287.678 303.45H281.702C281.287 303.45 280.955 303.201 280.955 302.786V278.301C280.955 276.475 281.536 276.06 283.113 275.811C285.022 275.479 288.342 275.312 290.998 275.312C296.559 275.312 302.618 277.221 302.618 284.691V285.023C302.618 292.328 296.476 294.403 291.081 294.403ZM295.065 284.691C295.065 282.533 293.571 281.703 291.081 281.703C290.832 281.703 288.674 281.703 288.425 281.703V288.095C288.591 288.095 290.832 288.095 291.081 288.095C293.737 288.095 295.065 287.098 295.065 285.023V284.691Z" fill="#162AC1"/>
<path d="M263.193 379.893C261.782 386.865 255.474 391.762 248.336 391.762H155.376C145.001 391.762 137.614 381.553 140.768 372.174C141.017 371.427 141.266 370.763 141.681 370.016C141.847 369.684 142.013 369.352 142.262 369.02C148.487 358.728 162.348 365.617 162.929 365.866C162.929 365.783 162.763 365.451 162.514 364.953C161.352 362.463 158.779 355.159 165.087 352.918C172.806 350.096 180.11 358.147 180.11 358.147C180.11 358.147 184.343 333.994 202.188 333.994C220.033 333.994 214.472 358.479 214.472 358.479C214.472 358.479 224.266 343.041 233.396 347.606C242.36 352.088 236.052 365.285 235.886 365.783C236.467 365.368 250.411 355.906 260.039 366.862C263.525 371.178 264.023 375.743 263.193 379.893Z" fill="#0F813A"/>
<path d="M247.423 391.761H155.376C145.001 391.761 137.614 381.552 140.768 372.173C141.847 374.995 143.756 378.149 147.076 380.971C155.625 388.026 165.668 382.465 165.668 382.465C165.668 382.465 166.249 370.264 173.636 370.264C180.94 370.264 182.766 375.161 182.766 375.161C182.766 375.161 189.157 363.292 198.038 362.96C206.919 362.628 207.832 374.829 207.832 374.829C207.832 374.829 212.397 369.932 216.713 371.177C220.946 372.422 219.452 379.726 219.452 379.726C219.452 379.726 229.246 375.161 238.957 379.145C245.597 381.801 247.091 388.026 247.423 391.761Z" fill="#11208F"/>
<path d="M263.193 379.893C261.782 386.865 255.474 391.762 248.336 391.762H247.34C247.34 391.762 262.612 379.229 256.221 369.933C249.913 360.72 231.57 370.182 231.238 370.348C231.404 369.767 236.135 354.495 229.993 351.922C223.768 349.349 212.48 365.617 212.48 365.617C212.48 365.617 213.061 340.302 200.694 338.891C187.331 337.397 182.102 363.791 182.102 363.791C182.102 363.791 173.138 353.914 166.83 355.989C160.771 358.064 163.178 366.032 163.344 366.53L162.348 364.953C161.186 362.463 158.613 355.159 164.921 352.918C172.64 350.096 179.944 358.147 179.944 358.147C179.944 358.147 184.177 333.994 202.022 333.994C219.867 333.994 214.306 358.479 214.306 358.479C214.306 358.479 224.1 343.041 233.23 347.606C242.194 352.088 235.886 365.285 235.72 365.783C236.301 365.368 250.245 355.906 259.873 366.862C263.525 371.178 264.023 375.743 263.193 379.893Z" fill="#CE4F40"/>
<path d="M202.769 154.3C202.769 154.3 203.931 154.217 206.006 153.968C208.081 153.802 211.069 153.553 214.638 153.304C218.207 153.055 222.44 152.806 226.922 152.64C229.163 152.557 231.487 152.474 233.894 152.391C236.301 152.308 238.708 152.308 241.032 152.225C245.846 152.142 250.66 152.059 255.225 152.142C259.707 152.142 263.94 152.308 267.592 152.391C271.161 152.557 274.232 152.723 276.307 152.889C277.386 152.972 278.216 153.055 278.714 153.055C279.295 153.138 279.627 153.138 279.627 153.138C280.208 153.221 280.54 153.47 280.457 153.802C280.374 154.051 279.876 154.3 279.378 154.3H279.295C279.295 154.3 278.133 154.3 276.058 154.217C273.983 154.134 270.995 154.134 267.426 154.134C263.857 154.134 259.707 154.134 255.225 154.134C252.984 154.134 250.66 154.217 248.336 154.217C246.012 154.217 243.605 154.3 241.198 154.3C236.384 154.383 231.653 154.466 227.171 154.632C222.689 154.715 218.539 154.881 214.97 154.964C207.832 155.213 203.018 155.379 203.018 155.379C202.437 155.379 201.939 155.13 201.939 154.798C201.856 154.632 202.188 154.3 202.769 154.3Z" fill="#FFFCE3"/>
<path d="M182.6 160.108C182.6 160.108 182.185 160.191 181.438 160.44C180.691 160.689 179.612 161.021 178.367 161.602C177.786 161.851 177.039 162.266 176.541 162.681C176.209 162.847 176.043 163.096 175.794 163.345C175.628 163.594 175.545 163.76 175.545 163.926C175.545 164.092 175.628 164.175 175.711 164.341C175.794 164.424 175.877 164.507 176.043 164.673C176.126 164.756 176.292 164.922 176.458 165.005C177.122 165.503 178.118 166.001 179.114 166.499C179.695 166.748 180.193 166.997 180.857 167.163L181.272 167.329L181.521 167.412H181.604C181.604 167.412 181.438 167.329 181.521 167.412H181.604C181.936 167.495 182.268 167.578 182.6 167.744C183.264 167.993 183.928 168.159 184.675 168.408C185.339 168.574 186.003 168.74 186.667 168.906C189.406 169.57 192.477 170.151 195.631 170.649C198.868 171.064 202.105 171.479 205.591 171.811C208.994 172.143 212.48 172.309 215.966 172.558C219.452 172.724 222.938 172.89 226.424 172.973C229.91 173.056 233.313 173.222 236.55 173.222C239.87 173.222 243.107 173.388 246.095 173.388C249.083 173.388 251.988 173.471 254.644 173.471C265.268 173.471 272.323 173.471 272.323 173.471C272.904 173.471 273.402 173.886 273.402 174.301C273.402 174.716 272.987 175.048 272.489 175.131C272.489 175.131 272.074 175.214 271.244 175.297C270.414 175.38 269.169 175.546 267.675 175.712C264.604 176.044 260.205 176.459 254.81 176.791C252.154 176.957 249.249 177.123 246.178 177.206C244.684 177.289 243.107 177.289 241.447 177.372C239.787 177.455 238.21 177.455 236.55 177.455C233.23 177.455 229.744 177.538 226.258 177.455C222.772 177.372 219.203 177.289 215.551 177.123C211.982 176.957 208.413 176.625 204.844 176.293C201.358 175.961 197.872 175.38 194.552 174.799C192.892 174.467 191.232 174.135 189.655 173.803C188.078 173.388 186.501 173.056 185.007 172.558C184.26 172.309 183.513 172.06 182.766 171.894C182.102 171.645 181.438 171.396 180.774 171.147C180.442 170.981 180.11 170.898 179.778 170.732L179.695 170.649L179.529 170.566H179.446L179.197 170.483L178.699 170.234C178.035 169.985 177.454 169.653 176.79 169.321C175.545 168.657 174.383 167.993 173.387 167.08C173.138 166.831 172.889 166.582 172.64 166.333C172.391 166.084 172.225 165.752 172.059 165.42C171.727 164.756 171.644 163.926 171.81 163.179C172.059 162.432 172.474 161.934 172.972 161.436C173.47 161.021 173.885 160.689 174.383 160.44C175.296 159.942 176.209 159.61 176.956 159.361C178.533 158.863 179.778 158.614 180.608 158.448C181.438 158.282 181.936 158.282 181.936 158.282C182.517 158.199 183.015 158.531 183.098 159.029C183.43 159.61 183.098 160.025 182.6 160.108Z" fill="#FFFCE3"/>
<path d="M353.165 172.808C352.003 175.464 350.841 177.954 349.679 180.278C339.968 199.036 328.68 205.676 324.198 204.763C319.218 203.684 321.625 198.538 318.222 196.38C314.736 194.222 305.191 202.19 298.883 198.206C292.658 194.222 294.899 187.665 288.84 187.167C282.864 186.586 276.39 188.993 270.165 185.424C263.94 181.855 266.264 179.033 277.967 169.82C289.753 160.607 296.476 145.501 299.547 128.984C301.954 116.036 307.432 108.815 314.736 105.993C322.123 103.171 331.419 104.997 341.13 110.143C360.386 120.352 363.54 148.323 353.165 172.808Z" fill="#EF4136"/>
<path d="M349.679 180.195C339.968 198.953 328.68 205.593 324.198 204.68C319.218 203.601 321.625 198.455 318.222 196.297C314.736 194.139 305.191 202.107 298.883 198.123C292.658 194.139 294.899 187.582 288.84 187.084C282.864 186.503 276.39 188.91 270.165 185.341C263.94 181.772 266.264 178.95 277.967 169.737C289.753 160.524 296.476 145.418 299.547 128.901C301.954 115.953 307.432 108.732 314.736 105.91C312.91 109.811 309.175 118.775 305.606 132.636C301.124 149.734 299.381 159.279 302.12 168.077C304.859 176.875 310.586 178.784 318.969 176.543C327.352 174.302 323.949 185.341 334.739 185.258C340.051 185.258 345.529 182.768 349.679 180.195Z" fill="#E03C32"/>
<path d="M310.669 160.69C310.337 160.773 299.547 163.346 292.409 163.844C285.271 164.342 276.141 163.927 273.319 159.196C271.991 156.955 272.157 155.544 273.651 154.299C275.394 152.888 278.963 151.809 284.192 150.315C294.069 147.493 305.357 141.766 305.357 141.766C320.712 145.584 310.669 160.69 310.669 160.69Z" fill="#EF4136"/>
<path d="M310.669 160.69C310.337 160.773 299.547 163.346 292.409 163.844C285.271 164.342 276.141 163.927 273.319 159.196C271.991 156.955 272.157 155.544 273.651 154.299C275.228 155.71 277.801 157.204 281.868 158.449C293.239 161.935 310.669 160.69 310.669 160.69Z" fill="#E03C32"/>
<path d="M290.749 165.171C287.844 165.171 284.856 165.088 282.117 164.756C273.651 163.926 271.659 159.029 271.244 157.784C270.912 157.286 270.746 156.622 270.912 155.875C271.327 154.049 273.568 152.472 277.635 151.061C285.437 148.322 290.583 146.413 296.891 143.84C303.614 141.018 305.689 141.101 306.021 141.184C306.685 141.267 307.183 141.848 307.1 142.595C307.017 143.259 306.436 143.757 305.689 143.674C305.689 143.674 303.863 143.674 297.804 146.164C291.496 148.82 286.267 150.646 278.465 153.468C273.651 155.128 273.319 156.456 273.319 156.539C273.485 156.705 273.568 156.871 273.568 157.037C273.568 157.203 274.73 161.602 282.283 162.349C290.915 163.179 301.539 162.598 306.519 161.104C311.001 159.693 312.163 157.286 312.827 152.887C312.91 152.223 313.574 151.725 314.238 151.808C314.902 151.891 315.4 152.555 315.317 153.219C314.57 158.282 312.91 161.685 307.266 163.511C303.697 164.507 297.306 165.171 290.749 165.171Z" fill="#C23229"/>
<path d="M325.028 205.676C324.53 205.676 323.949 205.593 323.534 205.427C320.878 204.514 320.214 203.02 319.467 199.949C319.301 199.202 318.803 197.874 317.641 197.293C316.562 196.795 315.068 196.961 313.325 197.791C307.266 200.613 301.954 200.945 297.555 198.621C294.65 197.127 293.571 194.139 292.741 191.815C292.077 190.072 291.496 188.495 290.5 188.246C289.089 187.831 286.682 188.08 284.192 188.246C280.789 188.495 276.971 188.827 273.485 188.08C268.505 187.084 266.845 185.009 266.264 183.432C265.766 182.187 265.683 180.195 267.675 177.622C270.746 173.721 283.196 163.097 283.777 162.682C284.275 162.267 285.105 162.267 285.52 162.848C285.935 163.346 285.935 164.176 285.354 164.591C285.188 164.674 272.572 175.464 269.584 179.199C268.837 180.112 268.09 181.44 268.588 182.602C269.086 183.93 271.078 185.092 273.983 185.673C277.22 186.337 280.789 186.005 284.026 185.756C286.931 185.507 289.421 185.341 291.247 185.839C293.488 186.503 294.318 188.744 295.148 190.985C295.978 193.143 296.808 195.384 298.8 196.463C302.452 198.372 307.017 198.123 312.329 195.633C315.483 194.139 317.558 194.554 318.803 195.135C320.38 195.882 321.459 197.459 321.957 199.534C322.621 202.439 323.036 202.771 324.447 203.186C325.858 203.684 328.763 201.443 330.008 200.696C330.589 200.364 331.336 200.53 331.751 201.111C332.083 201.692 331.917 202.439 331.336 202.854C330.755 202.937 327.767 205.676 325.028 205.676Z" fill="#C23229"/>
<path d="M295.48 146.829C295.314 146.829 295.231 146.829 295.065 146.746C294.401 146.497 294.069 145.833 294.235 145.169C294.235 145.086 296.31 138.695 297.555 132.47C298.634 127.075 300.875 117.364 304.444 112.55C308.677 106.74 316.811 105.246 317.143 105.163C317.807 104.997 318.471 105.329 318.72 105.993C318.886 106.657 318.554 107.321 317.89 107.57C317.807 107.57 310.171 108.981 306.436 114.044C303.033 118.609 300.792 128.818 300.045 132.968C298.8 139.359 296.725 145.916 296.725 145.999C296.476 146.414 295.978 146.829 295.48 146.829Z" fill="#C23229"/>
<path d="M342.956 165.918C342.624 166.582 342.126 167.246 341.545 167.827C336.98 172.973 329.178 175.629 326.854 172.309C325.526 170.4 325.277 168.408 325.858 166.416C327.269 160.938 334.324 155.875 338.723 155.958C343.952 155.958 345.695 161.104 342.956 165.918Z" fill="#162AC1"/>
<path d="M342.956 165.918C342.624 166.582 342.126 167.246 341.545 167.827C336.98 172.973 329.178 175.629 326.854 172.309C325.526 170.4 325.277 168.408 325.858 166.416C330.091 163.511 341.877 163.345 342.956 165.918Z" fill="#C23229"/>
<path d="M350.841 130.478C347.189 130.478 343.62 137.699 346.691 142.513C349.762 147.327 354.825 144.505 355.904 140.355C357.149 135.375 355.987 130.395 350.841 130.478Z" fill="white"/>
<path d="M348.932 136.786C346.774 136.537 344.616 139.94 346.359 142.596C348.102 145.252 351.09 144.173 351.754 142.098C352.584 139.691 352.003 137.035 348.932 136.786Z" fill="#162AC1"/>
<path d="M331.502 126.66C327.601 126.162 322.538 133.217 325.111 138.944C327.684 144.671 333.494 142.347 335.32 138.114C337.561 132.968 337.146 127.407 331.502 126.66Z" fill="white"/>
<path d="M327.103 133.216C324.945 132.967 322.787 136.37 324.53 139.026C326.273 141.682 329.261 140.603 329.925 138.528C330.755 136.121 330.174 133.548 327.103 133.216Z" fill="#162AC1"/>
</svg>
