<svg width="16" height="16" viewBox="0 0 16 16" fill="none" xmlns="http://www.w3.org/2000/svg">
<path fill-rule="evenodd" clip-rule="evenodd" d="M9.20054 1.99734C8.5375 1.3343 7.4625 1.3343 6.79946 1.99734L1.99728 6.79952C1.33424 7.46256 1.33424 8.53756 1.99728 9.2006L6.79946 14.0028C7.4625 14.6658 8.5375 14.6658 9.20054 14.0028L14.0027 9.2006C14.6658 8.53756 14.6658 7.46256 14.0027 6.79952L9.20054 1.99734ZM7.24999 7.25006C7.24999 7.66428 7.58578 8.00006 7.99999 8.00006C8.41421 8.00006 8.74999 7.66428 8.74999 7.25006V4.75006C8.74999 4.33585 8.41421 4.00006 7.99999 4.00006C7.58578 4.00006 7.24999 4.33585 7.24999 4.75006V7.25006ZM7.24999 11.2501C7.24999 11.6643 7.58578 12.0001 7.99999 12.0001C8.41421 12.0001 8.74999 11.6643 8.74999 11.2501V10.7501C8.74999 10.3358 8.41421 10.0001 7.99999 10.0001C7.58578 10.0001 7.24999 10.3358 7.24999 10.7501V11.2501Z" fill="#EF4136"/>
</svg>
