<svg width="498" height="499" viewBox="0 0 498 499" fill="none" xmlns="http://www.w3.org/2000/svg">
<path d="M465.148 252.15C462.855 256.036 433.832 275.7 416.227 278.61C412.82 279.173 409.1 279.366 406.141 277.587C404.393 276.537 403.09 274.898 401.852 273.276C399.023 269.569 396.324 265.763 393.762 261.866C392.415 259.819 391.08 257.681 390.623 255.274C389.411 248.898 394.55 243.172 399.629 239.133C411.304 229.847 424.974 223.082 439.438 219.433C441.998 218.787 444.713 218.24 447.249 218.974C451.366 220.165 453.828 224.33 455.399 228.318C456.969 232.305 458.195 236.667 461.334 239.584C462.051 240.25 467.44 248.264 465.148 252.15Z" fill="#FFFCE3"/>
<path fill-rule="evenodd" clip-rule="evenodd" d="M309.197 421.557C281.029 426.374 294.454 405.902 298.339 380.277C304.722 338.173 312.593 274.188 312.593 274.188C312.593 274.188 317.726 371.686 317.726 395.426C317.726 419.166 312.592 420.976 309.197 421.557Z" fill="#FFFCE3"/>
<path d="M279.1 398.361C279.819 405.141 280.577 412.064 283.458 418.244C281.886 404.251 280.314 390.258 278.742 376.265C278.548 374.537 278.605 372.337 280.195 371.633C281.54 387.433 283.545 403.178 286.204 418.811C286.52 420.667 283.732 421.727 282.166 420.682C280.601 419.637 280.1 417.601 279.744 415.753C277.149 402.281 275.723 388.585 275.486 374.868C272.182 375.519 269.866 378.721 269.198 382.021C268.53 385.32 269.174 388.728 269.817 392.032C271.889 402.669 273.96 413.305 276.032 423.942C277.001 428.917 277.97 434.058 276.901 439.012C272.789 420.241 269.484 401.294 266.997 382.24C235.451 401.53 194.803 405.118 160.366 391.65C152.845 388.709 145.376 384.811 140.408 378.444C136.495 373.428 134.407 367.201 133.313 360.934C129.427 338.677 137.389 315.974 148.195 296.132C152.296 288.603 156.966 280.762 156.635 272.195C156.521 269.246 155.885 265.98 157.607 263.583C157.851 264.027 146.332 181.63 150.953 163.404C162.077 119.527 198.215 113.584 221.353 114.126C236.878 114.489 335.284 134.045 349.501 160.64C368.188 195.593 364.22 224.979 360.902 244.356C359.913 250.126 312.606 273.763 312.593 273.882C309.888 299.025 291.738 353.81 276.517 374.004C277.378 382.123 278.239 390.242 279.1 398.361Z" fill="#FFFCE3"/>
<path fill-rule="evenodd" clip-rule="evenodd" d="M51.955 296.055C43.0831 292.513 32.5104 293.564 24.5118 298.781C23.7374 299.286 22.6241 298.723 22.2408 297.883C21.8574 297.043 22.0008 296.065 22.1969 295.163C24.7515 283.407 34.9283 274.411 46.2457 270.278C57.5632 266.144 69.9426 266.132 81.9731 266.839C83.1669 266.909 84.4145 267.002 85.4328 267.628C86.4511 268.254 87.1362 269.592 86.6286 270.673C81.8961 280.75 78.3311 291.373 76.0274 302.263C75.6539 304.029 73.8242 305.201 72.0222 305.348C70.2202 305.495 68.4545 304.83 66.8191 304.06C61.7225 301.662 57.1869 298.144 51.955 296.055Z" fill="#FFFCE3"/>
<path fill-rule="evenodd" clip-rule="evenodd" d="M324.652 118.584C325.093 111.84 324.584 105.035 323.147 98.4316L323.116 98.2909C322.872 97.1743 322.621 96.0258 322.846 94.9084C323.343 92.437 326.088 90.9494 328.608 91.0013C331.129 91.0532 333.463 92.2563 335.694 93.4313C346.39 99.0659 357.279 104.843 365.7 113.517C365.965 120.538 364.31 127.468 362.676 134.309L362.676 134.309L362.523 134.952C355.702 163.544 350.118 192.431 345.789 221.504C345.374 224.291 344.587 227.578 341.944 228.554C340.048 229.254 337.844 228.36 336.497 226.853C335.15 225.346 334.506 223.345 334.057 221.375C332.949 216.513 332.815 211.431 333.667 206.518C334.188 203.514 335.068 200.591 335.948 197.669L335.948 197.668L335.948 197.668L335.948 197.668L335.948 197.668L335.949 197.668L335.949 197.667L335.949 197.667L335.949 197.667L335.949 197.667L335.949 197.667L335.949 197.667L335.949 197.666L335.949 197.666L335.949 197.666C336.739 195.042 337.53 192.417 338.061 189.732C338.592 187.046 338.859 184.317 339.119 181.591C340.499 167.1 341.67 152.588 342.631 138.063C342.767 136.011 342.89 133.894 342.218 131.949C341.022 128.492 337.539 126.306 334.02 125.304C333.413 125.131 332.797 124.984 332.181 124.838C330.748 124.496 329.315 124.154 328.007 123.488C326.137 122.535 324.515 120.678 324.652 118.584ZM331.188 118.031C336.162 119.08 341.023 120.665 345.659 122.749C346.593 123.169 347.575 123.66 348.079 124.551C348.491 125.278 348.515 126.154 348.527 126.99C348.673 136.807 348.704 146.651 347.664 156.414C347.041 162.26 346.037 168.056 345.033 173.85L345.032 173.854C344.715 175.687 344.397 177.52 344.092 179.354C342.579 188.438 341.362 197.571 340.442 206.734C339.774 213.382 339.286 220.253 341.354 226.607C342.415 226.413 342.823 225.135 343.024 224.076L362.135 123.342C362.598 120.901 363.061 118.378 362.515 115.955C361.56 111.711 357.794 108.761 354.163 106.367C347.173 101.759 339.733 97.8341 331.982 94.6668C331.338 102.436 331.072 110.236 331.188 118.031ZM341.016 184.186C344.515 166.222 346.096 147.884 345.723 129.586C345.695 128.204 345.62 126.719 344.775 125.625C344.156 124.823 343.209 124.354 342.285 123.94C338.813 122.385 335.163 121.228 331.43 120.498C330.349 120.287 328.761 120.516 328.808 121.616L342.227 127.161C343.014 127.487 343.853 127.854 344.298 128.581C344.734 129.293 344.691 130.188 344.635 131.021L341.016 184.186ZM328.529 92.889C327.422 92.1556 325.824 92.9116 325.208 94.0872C324.591 95.2628 324.685 96.6701 324.825 97.99C325.03 99.9266 325.299 101.864 325.569 103.802C326.318 109.178 327.067 114.557 326.431 119.922C327.445 120.271 328.578 119.555 329.071 118.602C329.563 117.649 329.576 116.529 329.578 115.456L329.611 96.1079C329.614 94.9255 329.514 93.5424 328.529 92.889ZM338.465 226.169C337.856 221.388 337.696 216.549 337.989 211.738C338.145 209.165 338.431 206.602 338.716 204.039L338.716 204.039C339.094 200.649 339.471 197.261 339.55 193.853C336.763 202.148 335.71 211.022 336.48 219.74C336.68 222.007 337.051 224.385 338.465 226.169ZM339.999 188.953C340.447 188.752 340.635 188.122 340.371 187.708C339.915 187.932 339.722 188.568 339.975 189.008L339.999 188.953ZM335.831 147.407C313.651 133.728 288.571 125.533 263.49 118.461C255.472 116.2 247.387 114.034 239.109 113.107C214.579 110.359 189.712 118.822 169.316 132.723C161.136 138.298 153.244 145.156 149.709 154.403C147.087 161.264 147.105 168.817 147.358 176.157C148.23 201.474 151.479 226.641 154.724 251.764C157.26 251.306 157.511 247.798 157.144 245.246C153.77 221.818 151.878 198.175 151.483 174.508C151.373 167.871 151.408 161.068 153.704 154.84C157.862 143.567 168.585 136.194 179.106 130.392C192.359 123.084 206.765 116.941 221.895 116.615C240.222 116.22 257.594 124.35 273.604 133.278C282.53 138.256 291.58 143.815 297.258 152.312C302.414 160.028 304.288 169.431 305.641 178.612C309.934 207.75 310.092 237.319 310.241 266.772C310.247 267.963 310.174 269.329 309.24 270.069C308.602 270.576 307.731 270.639 306.917 270.681L277.017 272.238C290.95 276.244 306.406 274.664 319.24 267.921L352.463 250.468C355.564 248.839 358.765 247.128 360.902 244.353C363.843 240.534 364.264 235.396 364.403 230.578C364.916 212.782 363.136 194.921 359.123 177.576C360.514 196.34 360.707 215.191 359.7 233.979C359.528 237.187 359.271 240.554 357.526 243.252C355.663 246.133 352.423 247.765 349.336 249.266L313.482 266.692C314.966 238.834 313.815 210.836 310.049 183.193C308.783 173.896 307.167 164.468 302.912 156.105C292.857 136.341 270.602 126.565 250.033 118.281C280.785 127.278 311.888 136.423 339.554 152.586C339.913 150.353 337.756 148.594 335.831 147.407ZM450.417 232.448C452.01 236.556 454.252 240.936 458.371 242.502C459.347 242.577 459.93 241.283 459.61 240.358C459.342 239.586 458.713 239.023 458.095 238.471L458.094 238.47L458.093 238.468C457.972 238.36 457.851 238.252 457.734 238.143C455.113 235.708 453.826 232.266 452.558 228.875L452.557 228.873L452.557 228.871L452.557 228.871C452.306 228.201 452.057 227.534 451.798 226.877C450.228 222.89 447.766 218.724 443.649 217.533C441.112 216.8 438.398 217.347 435.837 217.993C421.373 221.642 407.704 228.406 396.029 237.692C390.95 241.732 385.811 247.458 387.022 253.833C387.48 256.241 388.815 258.378 390.161 260.426C392.724 264.322 395.423 268.129 398.252 271.836C399.49 273.457 400.792 275.096 402.54 276.147C405.5 277.926 409.22 277.732 412.627 277.169C430.232 274.259 445.3 263.318 459.638 252.696C460.385 252.143 461.161 251.554 461.547 250.71C461.934 249.865 461.769 248.691 460.949 248.255C460.009 247.755 458.9 248.445 458.062 249.101C444.719 259.548 430.466 269.755 413.923 273.425C410.786 274.121 407.33 274.531 404.508 272.995C402.397 271.846 400.971 269.78 399.625 267.789L391.279 255.441C390.576 254.4 389.848 253.283 389.822 252.028C389.796 250.772 390.81 249.415 392.055 249.577C403.753 251.098 415.507 252.192 427.286 252.855C428.223 252.907 429.204 252.95 430.058 252.56C431.159 252.057 431.83 250.944 432.417 249.886C437.403 240.897 441.212 231.256 443.715 221.286C447.044 223.672 448.597 227.714 450.079 231.571L450.082 231.581L450.089 231.599C450.152 231.762 450.214 231.925 450.277 232.087C450.323 232.207 450.37 232.328 450.417 232.448ZM440.12 220.497C437.891 228.835 434.594 236.887 430.335 244.393C429.621 245.652 428.828 246.948 427.58 247.679C425.991 248.609 424.015 248.434 422.185 248.229L393.045 244.978C397.88 238.589 405.062 234.443 412.238 230.88C419.031 227.508 426.004 224.499 433.119 221.872C435.371 221.041 437.733 220.235 440.12 220.497ZM279.1 398.357C279.819 405.137 280.577 412.06 283.458 418.24L278.742 376.261C278.548 374.533 278.606 372.334 280.195 371.629C281.54 387.429 283.546 403.174 286.205 418.807C286.52 420.663 283.732 421.724 282.167 420.678C280.601 419.633 280.1 417.597 279.744 415.749C277.15 402.277 275.723 388.581 275.486 374.864C272.183 375.515 269.866 378.717 269.198 382.017C268.53 385.316 269.174 388.724 269.818 392.028L276.032 423.938C277.001 428.913 277.97 434.054 276.901 439.008C272.79 420.238 269.484 401.29 266.997 382.236C235.451 401.527 194.803 405.114 160.367 391.647C152.845 388.705 145.376 384.808 140.408 378.44C136.495 373.425 134.407 367.197 133.313 360.93C129.428 338.673 137.389 315.97 148.196 296.128C148.477 295.611 148.761 295.093 149.046 294.574L149.047 294.573C152.914 287.519 156.943 280.17 156.635 272.191C156.615 271.664 156.578 271.127 156.54 270.586C156.369 268.102 156.193 265.548 157.607 263.579C159.505 267.031 160.227 271.115 159.629 275.007C192.288 273.602 224.995 273.319 257.673 274.159C258.054 275.661 255.877 276.359 254.327 276.336C223.832 275.881 193.321 276.401 162.859 277.894C161.894 277.941 160.882 278.004 160.064 278.517C159.203 279.058 158.702 280.006 158.24 280.91C149.594 297.827 140.92 314.989 136.741 333.522C134.592 343.052 133.769 353.482 138.174 362.203C139.845 365.511 142.208 368.432 144.846 371.035C159.012 385.007 180.224 389.291 200.118 388.957C212.815 388.743 225.484 386.918 237.725 383.539C250.702 379.956 263.644 374.309 272.502 364.171C277.704 358.217 281.239 351.007 284.336 343.733C290.247 329.843 294.782 315.368 297.851 300.588C299.773 300.992 299.8 303.709 299.356 305.623C293.869 329.293 287.492 354.524 269.42 370.766C253.098 385.435 230.097 389.985 208.186 391.212C195.529 391.921 182.673 391.699 170.414 388.473C158.155 385.246 146.449 378.792 138.667 368.785C140.937 377.44 148.625 383.617 156.63 387.614C177.648 398.11 202.468 397.555 225.676 393.907C241.135 391.476 257.004 387.488 269.035 377.48C279.319 368.926 285.873 356.708 290.806 344.274C296.266 330.511 300.054 316.085 302.06 301.415C303.309 300.626 304.234 302.833 304.076 304.301C301.372 329.444 291.739 353.806 276.517 374L279.1 398.357ZM264.483 441.351C263.142 439.087 262.279 436.541 261.966 433.928L260.039 440.457L255.176 421.912C254.799 420.474 253.881 418.673 252.426 418.982C251.012 419.283 250.853 421.224 251.064 422.654C252.123 429.849 254.144 436.901 257.055 443.565L251.883 439.027C251.632 441.187 252.2 443.433 253.45 445.213C250.756 443.229 247.143 442.553 243.915 443.429C246.222 446.634 249.354 449.241 252.926 450.927L248.556 444.827C252.088 446.866 255.788 448.613 259.607 450.045L255.905 445.402L260.479 446.67C256.979 438.707 253.413 430.44 253.498 421.742C254.823 428.818 256.762 435.779 259.287 442.52C259.715 443.663 260.191 444.844 261.102 445.654C262.014 446.465 263.495 446.771 264.45 446.011C265.193 445.421 265.409 444.404 265.578 443.471L267.638 432.044L269.901 446.215C271.617 441.881 277.197 440.794 281.858 440.765C288.014 440.727 294.215 441.405 300.401 442.081C311.55 443.3 322.648 444.514 333.331 441.515C333.017 443.167 332.468 444.773 331.706 446.272C340.326 445.017 349.049 444.467 357.758 444.627C361.437 444.695 365.126 444.889 368.816 445.082H368.816H368.816H368.816H368.817H368.817H368.817H368.817H368.818C378.571 445.594 388.325 446.106 397.881 444.295L334.457 443.738C335.648 443.668 336.561 442.283 336.155 441.161C335.749 440.039 334.161 439.559 333.201 440.268C332.577 438.285 329.773 437.403 328.127 438.672C329.082 435.729 330.969 433.096 333.451 431.248C330.65 431.098 327.806 431.955 325.555 433.628L332.377 402.055C331.8 401.558 330.838 401.892 330.412 402.522C329.99 403.146 329.943 403.94 329.899 404.693L329.897 404.716C329.258 415.497 325.457 426.072 319.085 434.792L316.583 427.553L312.996 436.2C311.371 434.941 309.065 434.623 307.16 435.396C307.647 437.245 309.126 438.801 310.948 439.38L311.797 437.106L317.399 440.858C315.258 438.615 314.794 434.943 316.31 432.237L319.7 437.924L326.271 424.927C326.308 430.146 324.072 435.078 321.88 439.814C324.262 437.948 326.311 435.655 327.898 433.079C329.43 435.792 327.757 439.431 325.092 441.046C322.427 442.661 319.131 442.749 316.017 442.617C311.267 442.417 306.48 441.82 301.699 441.224H301.699C290.962 439.886 280.256 438.551 270.057 441.712L268.586 428.152C266.34 432.211 264.934 436.734 264.483 441.351ZM328.472 441.714C328.242 441.438 328.244 440.996 328.476 440.722L328.661 440.792C328.972 440.047 330.282 440.108 330.523 440.879C329.919 441.315 329.209 441.604 328.472 441.714ZM363.124 297.642C355.737 293.908 346.947 294.916 338.747 296.04C336.43 296.357 334.068 296.69 331.969 297.722C329.871 298.754 328.043 300.622 327.681 302.932C307.655 300.432 288.465 291.618 273.52 278.055C270.277 275.112 266.967 270.92 268.426 266.79C268.884 265.492 269.776 264.396 270.704 263.379C277.672 255.74 287.278 251.146 296.63 246.736C286.031 247.665 275.861 252.821 268.846 260.82C267.238 262.653 265.756 264.702 265.202 267.077C263.835 272.94 268.39 278.441 272.948 282.375C287.491 294.927 305.784 303.078 324.842 305.499C325.985 305.644 326.044 307.251 325.94 308.398C325.476 313.502 328.257 318.482 332.113 321.857C335.969 325.233 340.798 327.26 345.59 329.075C360.431 334.696 375.832 338.837 391.491 341.414C392.526 341.584 393.947 341.504 394.165 340.478C390.551 338.087 386.202 337.177 381.949 336.286L381.666 336.227L381.261 336.142C370.479 333.872 359.841 330.916 349.434 327.297C345.164 325.812 340.884 324.191 337.162 321.626C333.439 319.062 330.277 315.44 329.087 311.079C328.499 308.926 329.297 305.711 331.512 305.982C340.534 307.085 349.804 308.175 358.613 305.937C360.607 305.431 362.685 304.667 363.9 303.007C365.115 301.348 364.959 298.57 363.124 297.642ZM340.367 303.604C337.27 303.071 334.106 302.928 330.974 303.18C332.496 300.289 336.214 299.528 339.451 299.087C346.487 298.129 353.815 297.194 360.556 299.425C361.002 299.572 361.477 299.761 361.718 300.163C362.035 300.693 361.804 301.414 361.353 301.836C360.902 302.259 360.288 302.45 359.693 302.617C353.43 304.367 346.776 304.707 340.367 303.604ZM237.888 449.458C243.071 449.313 248.285 450.458 252.93 452.763C251.688 454.547 249.193 454.797 247.021 454.879L190.249 457.034C189.729 456.969 189.631 456.166 189.999 455.793C190.368 455.42 190.944 455.372 191.468 455.347L246.888 452.644C243.686 452.35 240.562 451.244 237.888 449.458ZM128.632 261.7C127.823 265.569 131.097 269.697 135.039 269.989C128.592 279.704 116.981 284.498 105.824 287.882C98.8612 289.995 91.1372 291.729 84.4991 288.749C83.6753 289.252 84.5538 290.492 85.4235 290.911C91.8834 294.024 99.5421 292.289 106.413 290.238C116.49 287.231 126.877 283.344 133.734 275.371C134.015 275.045 134.294 274.709 134.576 274.371L134.576 274.37C136.341 272.249 138.181 270.037 140.835 269.546C149.377 267.966 156.492 262.616 163.523 257.329L163.523 257.329L163.523 257.328L163.524 257.328L163.524 257.328C165.118 256.129 166.708 254.933 168.309 253.786C178.043 246.809 188.84 241.317 200.21 237.558C201.215 237.226 202.436 236.61 202.347 235.556C188.249 236.85 175.926 245.257 164.564 253.702L164.185 253.984C156.463 259.725 148.393 265.724 138.891 267.146C141.995 264.699 141.34 259.042 137.838 257.208C134.336 255.375 129.441 257.83 128.632 261.7ZM131.263 264.064C130.629 262.187 131.608 259.955 133.346 259.004C133.839 258.734 134.391 258.554 134.953 258.554C136.809 258.552 138.165 260.537 138.177 262.393C138.189 264.249 137.248 265.961 136.334 267.576C134.195 267.249 131.955 266.114 131.263 264.064ZM342.217 222.706C341.692 222.121 341.853 221.333 342.021 220.517C342.139 219.94 342.26 219.349 342.144 218.805C342.043 218.334 341.768 217.933 341.492 217.531C341.248 217.174 341.004 216.817 340.878 216.41C340.907 215.871 341.627 215.595 342.118 215.818C342.609 216.042 342.884 216.569 343.055 217.08C343.68 218.946 343.359 221.103 342.217 222.706ZM294.693 181.758C296.006 178.643 298.61 175.882 301.931 175.249C303.005 175.045 302.972 173.273 302.03 172.716C301.089 172.16 299.88 172.489 298.892 172.959C294.292 175.149 291.387 179.968 290.249 184.935C289.111 189.901 289.488 195.073 289.87 200.153L291.904 227.158C291.973 228.076 292.058 229.04 292.569 229.806C293.61 231.366 295.844 231.415 297.715 231.296L307.189 230.694C305.083 229.044 302.257 228.349 299.627 228.835C298.091 229.119 296.548 228.106 295.734 226.772C294.92 225.439 294.681 223.843 294.48 222.294C293.159 212.159 292.675 201.916 293.033 191.702C293.151 188.324 293.379 184.872 294.693 181.758ZM318.882 421.458C318.344 421.849 317.804 420.959 317.726 420.299C314.065 389.525 313.513 358.475 312.965 327.488L312.595 306.599C312.585 306.004 312.593 305.352 312.976 304.896C313.634 304.111 315.019 304.471 315.594 305.319C316.169 306.166 316.17 307.265 316.151 308.289C315.587 338.782 315.957 369.334 318.877 399.691C318.912 400.061 318.948 400.43 318.984 400.8C319.653 407.696 320.333 414.696 318.882 421.458ZM288.444 227.474C287.642 227.034 286.653 227.283 285.776 227.542C245.188 239.547 204.692 251.925 164.794 266.053C164.047 266.317 163.193 266.698 163.021 267.471C162.84 268.291 163.611 269.073 164.436 269.225C165.262 269.377 166.096 269.082 166.884 268.792C206.869 254.083 247.456 241.01 288.509 229.617C289.39 229.372 289.246 227.914 288.444 227.474Z" fill="#EF4136"/>
<path fill-rule="evenodd" clip-rule="evenodd" d="M433.054 411.102C432.109 411.517 431.086 411.904 430.069 411.729C429.052 411.554 428.1 410.599 428.305 409.587C430.173 400.337 427.827 390.321 422.047 382.862C420.021 380.248 417.609 377.947 415.635 375.294C414.391 373.622 413.285 371.519 413.916 369.533C414.813 366.707 418.428 366.019 421.387 365.818C428.265 365.349 435.142 364.88 442.02 364.411C445.189 364.195 448.839 364.163 450.954 366.533C456.843 373.129 468.321 373.572 474.7 367.449C475.688 366.502 476.931 368.388 476.892 369.756C476.768 374.056 474.996 378.289 472.018 381.394C471.316 382.127 470.417 382.844 469.408 382.739C468.398 382.634 467.653 381.185 468.458 380.566C470.185 379.24 471.944 377.88 473.155 376.07C474.366 374.26 474.953 371.887 474.127 369.872C469.685 375.493 465.199 381.079 460.672 386.632C452.823 396.259 444.428 406.107 433.054 411.102ZM445.46 382.773C444.33 383.086 443.125 382.846 441.997 382.527C433.879 380.233 426.401 373.891 418.097 375.375C427.779 383.173 432.92 396.248 431.141 408.552C437.521 407.186 442.558 402.423 447.077 397.717C453.764 390.751 460.115 383.461 466.097 375.881C461.797 375.846 457.513 374.605 453.859 372.338C449.345 373.454 449.941 381.534 445.46 382.773ZM451.355 369.966C448.666 366.796 443.833 366.894 439.692 367.257C434.291 367.732 428.889 368.206 423.488 368.681C421.295 368.873 418.777 369.258 417.633 371.139C426.982 373.096 436.096 376.17 444.721 380.275C445.83 376.791 448.053 373.671 450.984 371.485C451.314 371.239 451.691 370.923 451.647 370.515C451.625 370.305 451.491 370.126 451.355 369.966V369.966Z" fill="#162AC1"/>
<path fill-rule="evenodd" clip-rule="evenodd" d="M50.9084 294.367C42.7729 291.113 33.0779 292.078 25.7432 296.871C25.0332 297.335 24.0123 296.818 23.6607 296.046C23.3092 295.274 23.4407 294.376 23.6205 293.547C25.963 282.747 35.295 274.484 45.673 270.686C56.051 266.889 67.4027 266.878 78.4346 267.527C79.5293 267.592 80.6734 267.677 81.6071 268.252C82.5409 268.827 83.1691 270.056 82.7037 271.049C78.364 280.307 75.095 290.066 72.9825 300.07C72.64 301.692 70.9622 302.769 69.3097 302.904C67.6573 303.039 66.0382 302.428 64.5386 301.721C59.8651 299.517 55.7059 296.286 50.9084 294.367ZM51.8384 283.44C51.1133 284.029 49.98 283.718 49.2978 283.08C48.6155 282.442 48.2268 281.558 47.6905 280.793C44.814 276.69 38.213 277.031 34.3003 280.161C30.3875 283.292 28.4941 288.239 26.77 292.944C38.2491 287.958 52.3875 289.747 62.2625 297.436C63.6108 298.486 64.9486 299.668 66.6089 300.073C68.2691 300.477 70.3607 299.75 70.7812 298.094C73.0278 289.247 75.7962 280.531 79.0674 272.009C72.7909 279.811 59.6097 277.126 51.8384 283.44ZM49.3402 278.724C49.9848 279.534 51.1551 279.749 52.174 279.566C53.1928 279.383 54.1185 278.876 55.0678 278.463C58.3361 277.042 61.9561 276.725 65.4601 276.076C68.9642 275.426 72.5784 274.327 75.0451 271.755C69.4795 271.738 63.914 271.721 58.3484 271.704C52.7553 271.688 46.7281 271.806 42.2348 275.137C44.9701 275.237 47.6356 276.582 49.3402 278.724Z" fill="#162AC1"/>
<path fill-rule="evenodd" clip-rule="evenodd" d="M312.282 293.624C312.269 288.728 312.256 283.833 312.243 278.937C312.239 277.531 312.235 276.126 312.231 274.72C312.229 273.75 312.391 272.537 313.313 272.236C314.01 272.008 314.777 272.508 315.103 273.165C315.429 273.822 315.425 274.588 315.414 275.321C315.312 282.152 315.21 288.984 315.109 295.816C315.094 296.798 314.929 298.007 314.009 298.352C312.475 297.483 312.287 295.387 312.282 293.624H312.282Z" fill="#EF4136"/>
<path fill-rule="evenodd" clip-rule="evenodd" d="M302.509 289.094C301.8 289.405 301.435 288.238 301.544 287.472C301.936 284.73 302.329 281.983 302.996 279.296C303.411 277.622 304.009 275.862 305.391 274.831C306.773 273.8 309.146 273.981 309.822 275.567C310.15 276.335 310.014 277.212 309.863 278.034C308.933 283.12 307.68 288.146 306.114 293.073C306.047 293.282 305.975 293.5 305.816 293.652C305.431 294.022 304.736 293.773 304.469 293.311C304.202 292.849 304.237 292.279 304.279 291.747C304.916 291.7 305.212 290.952 305.365 290.332C305.989 287.802 306.613 285.272 307.237 282.742C307.723 280.774 308.166 278.532 307.036 276.849C305.875 277.564 305.439 279.009 305.093 280.328C304.398 282.981 303.703 285.635 303.008 288.288C302.925 288.605 302.809 288.963 302.509 289.094L302.509 289.094Z" fill="#EF4136"/>
</svg>
