<!DOCTYPE svg PUBLIC "-//W3C//DTD SVG 1.1//EN" "http://www.w3.org/Graphics/SVG/1.1/DTD/svg11.dtd">

<!-- Uploaded to: SVG Repo, www.svgrepo.com, Transformed by: SVG Repo Mixer Tools -->
<svg width="800px" height="800px" viewBox="0 0 24 24" fill="none" xmlns="http://www.w3.org/2000/svg">

<g id="SVGRepo_bgCarrier" stroke-width="0"/>

<g id="SVGRepo_tracerCarrier" stroke-linecap="round" stroke-linejoin="round"/>

<g id="SVGRepo_iconCarrier"> <path fill-rule="evenodd" clip-rule="evenodd" d="M3.19623 6.43783C2.64395 5.48125 2.9717 4.25807 3.92828 3.70578L7.39238 1.70578C8.34897 1.1535 9.57215 1.48125 10.1244 2.43783L12.0436 5.76189L13.9627 2.43783C14.515 1.48125 15.7382 1.1535 16.6948 1.70578L20.1589 3.70578C21.1155 4.25807 21.4432 5.48125 20.8909 6.43783L18.0155 11.4183C18.6408 12.4661 19 13.6911 19 15C19 18.866 15.866 22 12 22C8.13401 22 5 18.866 5 15C5 13.6603 5.37636 12.4085 6.02912 11.3445L3.19623 6.43783ZM16.656 9.77293L19.1589 5.43783L15.6948 3.43783L13.1983 7.76189L13.4188 8.14391C14.6457 8.39647 15.7553 8.97003 16.656 9.77293ZM8.39238 3.43783L11.0623 8.06229C9.67124 8.24852 8.4095 8.84331 7.40175 9.72201L4.92828 5.43783L8.39238 3.43783ZM12 20C14.7614 20 17 17.7615 17 15C17 12.2386 14.7614 10 12 10C9.23858 10 7 12.2386 7 15C7 17.7615 9.23858 20 12 20Z" fill="#162AC1"/> </g>

</svg>