<svg width="24" height="16" viewBox="0 0 24 16" fill="none" xmlns="http://www.w3.org/2000/svg">
<mask id="path-1-outside-1_768_10479" maskUnits="userSpaceOnUse" x="-3" y="-3" width="30" height="22" fill="black">
<rect fill="white" x="-3" y="-3" width="30" height="22"/>
<path d="M5.12281 15L0.802813 0.999999H3.08281L6.38281 12.2L9.68281 0.999999H11.9628L7.64281 15H5.12281ZM18.765 15.24C17.7783 15.24 16.9117 15.06 16.165 14.7C15.4317 14.34 14.8517 13.8267 14.425 13.16C14.0117 12.4933 13.7983 11.7 13.785 10.78H16.025C16.0383 11.4867 16.2783 12.0933 16.745 12.6C17.225 13.0933 17.8917 13.34 18.745 13.34C19.5317 13.34 20.145 13.16 20.585 12.8C21.025 12.4267 21.245 11.9467 21.245 11.36C21.245 10.8667 21.1117 10.46 20.845 10.14C20.5917 9.80667 20.1917 9.51333 19.645 9.26C19.0983 8.99333 18.3917 8.72 17.525 8.44C16.365 8.06667 15.5117 7.55333 14.965 6.9C14.4183 6.23333 14.145 5.42 14.145 4.46C14.145 3.35333 14.545 2.46 15.345 1.78C16.145 1.1 17.245 0.76 18.645 0.76C20.005 0.76 21.0983 1.11333 21.925 1.82C22.7517 2.51333 23.1783 3.48 23.205 4.72H20.945C20.945 4.38667 20.8517 4.06667 20.665 3.76C20.4783 3.44 20.2117 3.18 19.865 2.98C19.5183 2.76667 19.0917 2.66 18.585 2.66C17.9583 2.64667 17.4317 2.8 17.005 3.12C16.5783 3.42667 16.365 3.84667 16.365 4.38C16.365 5.03333 16.625 5.54667 17.145 5.92C17.665 6.28 18.5117 6.65333 19.685 7.04C20.4183 7.28 21.065 7.57333 21.625 7.92C22.1983 8.25333 22.645 8.68667 22.965 9.22C23.2983 9.74 23.465 10.4067 23.465 11.22C23.465 11.9667 23.2783 12.6467 22.905 13.26C22.5317 13.86 21.9917 14.34 21.285 14.7C20.5917 15.06 19.7517 15.24 18.765 15.24Z"/>
</mask>
<path d="M5.12281 15L0.802813 0.999999H3.08281L6.38281 12.2L9.68281 0.999999H11.9628L7.64281 15H5.12281ZM18.765 15.24C17.7783 15.24 16.9117 15.06 16.165 14.7C15.4317 14.34 14.8517 13.8267 14.425 13.16C14.0117 12.4933 13.7983 11.7 13.785 10.78H16.025C16.0383 11.4867 16.2783 12.0933 16.745 12.6C17.225 13.0933 17.8917 13.34 18.745 13.34C19.5317 13.34 20.145 13.16 20.585 12.8C21.025 12.4267 21.245 11.9467 21.245 11.36C21.245 10.8667 21.1117 10.46 20.845 10.14C20.5917 9.80667 20.1917 9.51333 19.645 9.26C19.0983 8.99333 18.3917 8.72 17.525 8.44C16.365 8.06667 15.5117 7.55333 14.965 6.9C14.4183 6.23333 14.145 5.42 14.145 4.46C14.145 3.35333 14.545 2.46 15.345 1.78C16.145 1.1 17.245 0.76 18.645 0.76C20.005 0.76 21.0983 1.11333 21.925 1.82C22.7517 2.51333 23.1783 3.48 23.205 4.72H20.945C20.945 4.38667 20.8517 4.06667 20.665 3.76C20.4783 3.44 20.2117 3.18 19.865 2.98C19.5183 2.76667 19.0917 2.66 18.585 2.66C17.9583 2.64667 17.4317 2.8 17.005 3.12C16.5783 3.42667 16.365 3.84667 16.365 4.38C16.365 5.03333 16.625 5.54667 17.145 5.92C17.665 6.28 18.5117 6.65333 19.685 7.04C20.4183 7.28 21.065 7.57333 21.625 7.92C22.1983 8.25333 22.645 8.68667 22.965 9.22C23.2983 9.74 23.465 10.4067 23.465 11.22C23.465 11.9667 23.2783 12.6467 22.905 13.26C22.5317 13.86 21.9917 14.34 21.285 14.7C20.5917 15.06 19.7517 15.24 18.765 15.24Z" fill="#FFFCE3"/>
<path d="M5.12281 15L2.25619 15.8846C2.64425 17.1422 3.80669 18 5.12281 18V15ZM0.802813 0.999999V-2C-0.149649 -2 -1.04552 -1.54772 -1.61107 -0.781338C-2.17662 -0.0149603 -2.34465 0.974441 -2.06382 1.88456L0.802813 0.999999ZM3.08281 0.999999L5.9605 0.152109C5.58452 -1.12394 4.4131 -2 3.08281 -2V0.999999ZM6.38281 12.2L3.50513 13.0479C3.88111 14.3239 5.05252 15.2 6.38281 15.2C7.7131 15.2 8.88452 14.3239 9.2605 13.0479L6.38281 12.2ZM9.68281 0.999999V-2C8.35252 -2 7.18111 -1.12394 6.80513 0.152109L9.68281 0.999999ZM11.9628 0.999999L14.8294 1.88456C15.1103 0.974441 14.9422 -0.0149602 14.3767 -0.781338C13.8111 -1.54772 12.9153 -2 11.9628 -2L11.9628 0.999999ZM7.64281 15V18C8.95894 18 10.1214 17.1422 10.5094 15.8846L7.64281 15ZM7.98944 14.1154L3.66944 0.11544L-2.06382 1.88456L2.25619 15.8846L7.98944 14.1154ZM0.802813 4H3.08281V-2H0.802813V4ZM0.205126 1.84789L3.50513 13.0479L9.2605 11.3521L5.9605 0.152109L0.205126 1.84789ZM9.2605 13.0479L12.5605 1.84789L6.80513 0.152109L3.50513 11.3521L9.2605 13.0479ZM9.68281 4H11.9628V-2H9.68281V4ZM9.09619 0.115439L4.77618 14.1154L10.5094 15.8846L14.8294 1.88456L9.09619 0.115439ZM7.64281 12H5.12281V18H7.64281V12ZM16.165 14.7L14.843 17.393C14.8493 17.3961 14.8557 17.3992 14.8621 17.4023L16.165 14.7ZM14.425 13.16L11.8753 14.7408C11.8828 14.753 11.8905 14.7651 11.8982 14.7772L14.425 13.16ZM13.785 10.78V7.78C12.9818 7.78 12.2122 8.10207 11.6484 8.67411C11.0846 9.24614 10.7737 10.0204 10.7853 10.8235L13.785 10.78ZM16.025 10.78L19.0245 10.7234C18.9936 9.0889 17.6598 7.78 16.025 7.78V10.78ZM16.745 12.6L14.5384 14.6324C14.5569 14.6526 14.5757 14.6724 14.5948 14.6921L16.745 12.6ZM20.585 12.8L22.4847 15.1219C22.4986 15.1105 22.5123 15.0991 22.5259 15.0875L20.585 12.8ZM20.845 10.14L18.4565 11.9552C18.4837 11.991 18.5116 12.0261 18.5403 12.0606L20.845 10.14ZM19.645 9.26L18.3297 11.9563C18.3476 11.965 18.3656 11.9736 18.3836 11.9819L19.645 9.26ZM17.525 8.44L18.4473 5.58529L18.4441 5.58426L17.525 8.44ZM14.965 6.9L12.6452 8.80224C12.6515 8.80991 12.6578 8.81756 12.6642 8.82517L14.965 6.9ZM21.925 1.82L19.9757 4.10036C19.9828 4.10647 19.99 4.11254 19.9972 4.11857L21.925 1.82ZM23.205 4.72V7.72C24.0118 7.72 24.7847 7.39501 25.349 6.81839C25.9134 6.24177 26.2217 5.46214 26.2043 4.6555L23.205 4.72ZM20.945 4.72H17.945C17.945 6.37685 19.2881 7.72 20.945 7.72V4.72ZM20.665 3.76L18.0737 5.27161C18.0831 5.28778 18.0927 5.30385 18.1024 5.31984L20.665 3.76ZM19.865 2.98L18.2927 5.53497C18.3169 5.54985 18.3413 5.56438 18.3658 5.57856L19.865 2.98ZM18.585 2.66L18.5212 5.65932C18.5425 5.65977 18.5637 5.66 18.585 5.66L18.585 2.66ZM17.005 3.12L18.7559 5.55605C18.7724 5.5442 18.7888 5.53218 18.805 5.52L17.005 3.12ZM17.145 5.92L15.3954 8.35697C15.4093 8.36696 15.4233 8.37683 15.4374 8.38658L17.145 5.92ZM19.685 7.04L18.746 9.88928L18.7519 9.89119L19.685 7.04ZM21.625 7.92L20.0459 10.4708C20.0695 10.4854 20.0932 10.4996 20.1171 10.5135L21.625 7.92ZM22.965 9.22L20.3925 10.7635C20.4078 10.7889 20.4234 10.8141 20.4394 10.839L22.965 9.22ZM22.905 13.26L25.4522 14.8449C25.4574 14.8366 25.4625 14.8282 25.4676 14.8198L22.905 13.26ZM21.285 14.7L19.9232 12.0269C19.9163 12.0304 19.9094 12.0339 19.9026 12.0375L21.285 14.7ZM18.765 12.24C18.1445 12.24 17.738 12.1279 17.4679 11.9977L14.8621 17.4023C16.0853 17.9921 17.4121 18.24 18.765 18.24V12.24ZM17.487 12.007C17.2295 11.8806 17.073 11.7322 16.9518 11.5428L11.8982 14.7772C12.6304 15.9212 13.6338 16.7994 14.843 17.393L17.487 12.007ZM16.9747 11.5792C16.8942 11.4494 16.7915 11.2079 16.7847 10.7365L10.7853 10.8235C10.8052 12.1921 11.1291 13.5373 11.8753 14.7408L16.9747 11.5792ZM13.785 13.78H16.025V7.78H13.785V13.78ZM13.0255 10.8366C13.0523 12.2556 13.5607 13.571 14.5384 14.6324L18.9516 10.5676C18.9508 10.5666 18.9587 10.5751 18.9704 10.5936C18.9822 10.6123 18.9944 10.6355 19.0046 10.6614C19.0149 10.6873 19.0205 10.7089 19.0232 10.723C19.0259 10.7368 19.0247 10.738 19.0245 10.7234L13.0255 10.8366ZM14.5948 14.6921C15.769 15.8989 17.2883 16.34 18.745 16.34V10.34C18.6043 10.34 18.5868 10.3195 18.646 10.3414C18.6761 10.3526 18.7186 10.372 18.7667 10.4031C18.8151 10.4343 18.8588 10.4705 18.8952 10.5079L14.5948 14.6921ZM18.745 16.34C19.9609 16.34 21.3353 16.0623 22.4847 15.1219L18.6853 10.4781C18.7461 10.4284 18.8045 10.392 18.8539 10.3666C18.9026 10.3416 18.937 10.3303 18.9502 10.3264C18.9725 10.3198 18.9155 10.34 18.745 10.34V16.34ZM22.5259 15.0875C23.6505 14.1333 24.245 12.8107 24.245 11.36H18.245C18.245 11.2702 18.264 11.1038 18.3528 10.91C18.4423 10.7149 18.5607 10.5832 18.6441 10.5125L22.5259 15.0875ZM24.245 11.36C24.245 10.3003 23.9453 9.17419 23.1497 8.21945L18.5403 12.0606C18.4243 11.9213 18.3424 11.7664 18.2943 11.6197C18.2483 11.4792 18.245 11.3833 18.245 11.36H24.245ZM23.2335 8.32475C22.5826 7.46837 21.715 6.91278 20.9064 6.53807L18.3836 11.9819C18.447 12.0113 18.4941 12.0363 18.5273 12.0554C18.5605 12.0747 18.5772 12.0865 18.5809 12.0892C18.5898 12.0957 18.5333 12.0562 18.4565 11.9552L23.2335 8.32475ZM20.9603 6.56369C20.2408 6.21271 19.3894 5.88965 18.4473 5.58529L16.6027 11.2947C17.394 11.5503 17.9559 11.774 18.3297 11.9563L20.9603 6.56369ZM18.4441 5.58426C17.6027 5.31347 17.3245 5.04495 17.2658 4.97483L12.6642 8.82517C13.6989 10.0617 15.1273 10.8199 16.6059 11.2957L18.4441 5.58426ZM17.2848 4.99776C17.2283 4.92885 17.145 4.8101 17.145 4.46H11.145C11.145 6.0299 11.6084 7.53782 12.6452 8.80224L17.2848 4.99776ZM17.145 4.46C17.145 4.274 17.177 4.1996 17.1831 4.18599C17.1872 4.17665 17.2034 4.13768 17.2879 4.06582L13.4021 -0.505818C11.8912 0.778432 11.145 2.52752 11.145 4.46H17.145ZM17.2879 4.06582C17.3874 3.98128 17.7174 3.76 18.645 3.76V-2.24C16.7726 -2.24 14.9026 -1.78128 13.4021 -0.505818L17.2879 4.06582ZM18.645 3.76C19.4751 3.76 19.818 3.96557 19.9757 4.10036L23.8743 -0.460365C22.3787 -1.7389 20.5349 -2.24 18.645 -2.24V3.76ZM19.9972 4.11857C20.0591 4.17048 20.1945 4.26552 20.2057 4.7845L26.2043 4.6555C26.1621 2.69448 25.4443 0.856183 23.8528 -0.478575L19.9972 4.11857ZM23.205 1.72H20.945V7.72H23.205V1.72ZM23.945 4.72C23.945 3.79405 23.6775 2.93924 23.2276 2.20016L18.1024 5.31984C18.0693 5.26542 18.0275 5.18149 17.995 5.07C17.9621 4.9571 17.945 4.8376 17.945 4.72H23.945ZM23.2563 2.24839C22.7855 1.44119 22.1258 0.820861 21.3642 0.381443L18.3658 5.57856C18.3388 5.56298 18.289 5.52984 18.2307 5.473C18.1715 5.41526 18.1173 5.34643 18.0737 5.27161L23.2563 2.24839ZM21.4373 0.425026C20.5146 -0.142815 19.5116 -0.340001 18.585 -0.340001V5.66C18.6293 5.66 18.6148 5.66478 18.5574 5.65043C18.4965 5.63521 18.4013 5.60178 18.2927 5.53497L21.4373 0.425026ZM18.6488 -0.339322C17.4737 -0.364324 16.2588 -0.0703245 15.205 0.719999L18.805 5.52C18.7211 5.5829 18.632 5.62404 18.5586 5.64541C18.4905 5.66522 18.4702 5.65824 18.5212 5.65932L18.6488 -0.339322ZM15.2541 0.683953C14.0293 1.56424 13.365 2.89818 13.365 4.38H19.365C19.365 4.52256 19.3337 4.75991 19.1997 5.0236C19.065 5.28889 18.8867 5.46207 18.7559 5.55605L15.2541 0.683953ZM13.365 4.38C13.365 5.97597 14.0714 7.40644 15.3954 8.35697L18.8946 3.48303C18.9812 3.54517 19.1251 3.67999 19.2363 3.89947C19.3463 4.11676 19.365 4.29992 19.365 4.38H13.365ZM15.4374 8.38658C16.3239 9.0003 17.5073 9.48105 18.746 9.88927L20.624 4.19073C19.516 3.82561 19.0061 3.5597 18.8526 3.45342L15.4374 8.38658ZM18.7519 9.89119C19.2963 10.0694 19.7196 10.2688 20.0459 10.4708L23.2041 5.36921C22.4104 4.87787 21.5403 4.49063 20.6181 4.18881L18.7519 9.89119ZM20.1171 10.5135C20.2826 10.6097 20.3503 10.6932 20.3925 10.7635L25.5375 7.67651C24.9397 6.68015 24.1141 5.89694 23.1329 5.32648L20.1171 10.5135ZM20.4394 10.839C20.3791 10.7449 20.465 10.8023 20.465 11.22H26.465C26.465 10.011 26.2176 8.73505 25.4906 7.601L20.4394 10.839ZM20.465 11.22C20.465 11.4394 20.4179 11.5761 20.3424 11.7002L25.4676 14.8198C26.1387 13.7172 26.465 12.4939 26.465 11.22H20.465ZM20.3578 11.6751C20.3073 11.7563 20.2041 11.8838 19.9232 12.0269L22.6468 17.3731C23.7793 16.7962 24.756 15.9637 25.4522 14.8449L20.3578 11.6751ZM19.9026 12.0375C19.7339 12.1251 19.394 12.24 18.765 12.24V18.24C20.1093 18.24 21.4494 17.9949 22.6674 17.3625L19.9026 12.0375Z" fill="#162AC1" mask="url(#path-1-outside-1_768_10479)"/>
</svg>
