<?xml version="1.0" encoding="utf-8"?>
<!-- Generator: Adobe Illustrator 21.0.0, SVG Export Plug-In . SVG Version: 6.00 Build 0)  -->
<svg version="1.1" id="Layer_1" xmlns="http://www.w3.org/2000/svg" xmlns:xlink="http://www.w3.org/1999/xlink" x="0px" y="0px"
	 viewBox="0 0 512 512" style="enable-background:new 0 0 512 512;" xml:space="preserve">
<g>
	<path d="M404.7,0c-3.2,0.1-6.7,0.5-10,1.3L48,92.7c-28,7.3-48,33-48,62V448c0,35.1,28.9,64,64,64h384c35.1,0,64-28.9,64-64V170.7
		c0-35.1-28.9-64-64-64H162.7l242.7-64v42.7H448V42.7C448,18.7,427.6-0.3,404.7,0z M64,149.3h384c12.1,0,21.3,9.2,21.3,21.3V448
		c0,12.1-9.2,21.3-21.3,21.3H64c-12.1,0-21.3-9.2-21.3-21.3V170.7C42.7,158.6,51.9,149.3,64,149.3z M394.7,277.3
		c-17.7,0-32,14.3-32,32s14.3,32,32,32s32-14.3,32-32C426.7,291.7,412.3,277.3,394.7,277.3z"/>
</g>
</svg>
