<svg width="207" height="39" viewBox="0 0 207 39" fill="none" xmlns="http://www.w3.org/2000/svg">
<mask id="path-1-outside-1_2678_7381" maskUnits="userSpaceOnUse" x="-1" y="-1" width="209" height="41" fill="black">
<rect fill="white" x="-1" y="-1" width="209" height="41"/>
<path d="M14.7697 38.612C11.8797 38.612 9.38073 37.864 7.27273 36.368C5.16473 34.872 3.54973 32.747 2.42773 29.993C1.30573 27.239 0.744727 23.958 0.744727 20.15C0.744727 16.342 1.30573 13.061 2.42773 10.307C3.54973 7.553 5.16473 5.428 7.27273 3.932C9.38073 2.436 11.8797 1.688 14.7697 1.688C17.6937 1.688 20.1927 2.436 22.2667 3.932C24.3747 5.428 25.9897 7.553 27.1117 10.307C28.2337 13.061 28.7947 16.342 28.7947 20.15C28.7947 23.958 28.2337 27.239 27.1117 29.993C25.9897 32.747 24.3747 34.872 22.2667 36.368C20.1927 37.864 17.6937 38.612 14.7697 38.612ZM14.7697 33.512C17.3197 33.512 19.3767 32.373 20.9407 30.095C22.5047 27.783 23.2867 24.468 23.2867 20.15C23.2867 15.832 22.5047 12.534 20.9407 10.256C19.3767 7.944 17.3197 6.788 14.7697 6.788C12.1857 6.788 10.1117 7.944 8.54773 10.256C7.01773 12.534 6.25273 15.832 6.25273 20.15C6.25273 24.468 7.01773 27.783 8.54773 30.095C10.1117 32.373 12.1857 33.512 14.7697 33.512ZM33.5278 38V12.704H38.2198L38.6788 16.478H38.9338C39.6138 15.254 40.6678 14.217 42.0958 13.367C43.5238 12.517 45.1728 12.092 47.0428 12.092C50.1368 12.092 52.4658 13.027 54.0298 14.897C55.5938 16.767 56.3758 19.521 56.3758 23.159V38H50.9698V23.822C50.9698 21.714 50.5278 20.082 49.6438 18.926C48.7598 17.77 47.3658 17.192 45.4618 17.192C43.5918 17.192 42.0278 17.821 40.7698 19.079C39.5458 20.337 38.9338 22.156 38.9338 24.536V38H33.5278ZM74.4199 8.828C73.2299 8.828 72.2269 8.454 71.4109 7.706C70.6289 6.924 70.2379 5.972 70.2379 4.85C70.2379 3.728 70.6289 2.793 71.4109 2.045C72.2269 1.297 73.2299 0.922997 74.4199 0.922997C75.6439 0.922997 76.6469 1.297 77.4289 2.045C78.2449 2.793 78.6529 3.728 78.6529 4.85C78.6529 5.972 78.2449 6.924 77.4289 7.706C76.6469 8.454 75.6439 8.828 74.4199 8.828ZM64.2709 38V33.308H72.2269V19.079C72.2269 17.957 71.6829 17.396 70.5949 17.396H64.9849V12.704H71.5639C73.6719 12.704 75.2019 13.197 76.1539 14.183C77.1399 15.135 77.6329 16.665 77.6329 18.773V33.308H85.5889V38H64.2709ZM94.708 38V1.28H100.114V23.312L109.804 12.704H116.587L106.03 23.924V24.332L117.964 38H111.385L100.114 24.995V38H94.708ZM132.846 38.612C129.786 38.612 127.457 37.677 125.859 35.807C124.295 33.903 123.513 31.149 123.513 27.545V12.704H128.919V26.882C128.919 28.956 129.361 30.588 130.245 31.778C131.163 32.934 132.557 33.512 134.427 33.512C136.297 33.512 137.861 32.883 139.119 31.625C140.377 30.367 141.006 28.548 141.006 26.168V12.704H146.412V38H141.72L141.261 34.226H141.006C140.326 35.45 139.272 36.487 137.844 37.337C136.416 38.187 134.75 38.612 132.846 38.612ZM151.145 38V12.704H155.633L156.092 15.662H156.347C156.789 14.608 157.469 13.758 158.387 13.112C159.305 12.432 160.393 12.092 161.651 12.092C162.875 12.092 163.946 12.398 164.864 13.01C165.782 13.622 166.462 14.506 166.904 15.662H167.108C167.55 14.642 168.247 13.792 169.199 13.112C170.151 12.432 171.324 12.092 172.718 12.092C174.588 12.092 175.999 12.704 176.951 13.928C177.937 15.152 178.43 16.869 178.43 19.079V38H173.228V20.15C173.228 19.13 173.007 18.331 172.565 17.753C172.157 17.141 171.494 16.835 170.576 16.835C169.658 16.835 168.893 17.192 168.281 17.906C167.703 18.62 167.414 19.623 167.414 20.915V38H162.161V20.15C162.161 19.13 161.957 18.331 161.549 17.753C161.141 17.141 160.478 16.835 159.56 16.835C158.642 16.835 157.877 17.192 157.265 17.906C156.653 18.62 156.347 19.623 156.347 20.915V38H151.145ZM192.955 38.612C190.949 38.612 189.266 38.272 187.906 37.592C186.546 36.878 185.526 35.943 184.846 34.787C184.166 33.597 183.826 32.305 183.826 30.911C183.826 28.429 184.727 26.491 186.529 25.097C188.365 23.703 190.949 23.006 194.281 23.006H200.809V22.445C200.809 18.637 199.041 16.733 195.505 16.733C194.043 16.733 192.802 17.056 191.782 17.702C190.796 18.314 190.133 19.317 189.793 20.711H184.387C184.659 18.059 185.798 15.968 187.804 14.438C189.844 12.874 192.411 12.092 195.505 12.092C199.245 12.092 201.965 13.01 203.665 14.846C205.365 16.682 206.215 19.215 206.215 22.445V38H201.625L201.166 34.277H200.809C200.061 35.467 199.126 36.487 198.004 37.337C196.882 38.187 195.199 38.612 192.955 38.612ZM193.975 34.073C196.185 34.073 197.834 33.41 198.922 32.084C200.044 30.724 200.656 29.007 200.758 26.933H194.842C192.904 26.933 191.527 27.256 190.711 27.902C189.929 28.514 189.538 29.381 189.538 30.503C189.538 31.625 189.929 32.509 190.711 33.155C191.527 33.767 192.615 34.073 193.975 34.073Z"/>
</mask>
<path d="M14.7697 38.612C11.8797 38.612 9.38073 37.864 7.27273 36.368C5.16473 34.872 3.54973 32.747 2.42773 29.993C1.30573 27.239 0.744727 23.958 0.744727 20.15C0.744727 16.342 1.30573 13.061 2.42773 10.307C3.54973 7.553 5.16473 5.428 7.27273 3.932C9.38073 2.436 11.8797 1.688 14.7697 1.688C17.6937 1.688 20.1927 2.436 22.2667 3.932C24.3747 5.428 25.9897 7.553 27.1117 10.307C28.2337 13.061 28.7947 16.342 28.7947 20.15C28.7947 23.958 28.2337 27.239 27.1117 29.993C25.9897 32.747 24.3747 34.872 22.2667 36.368C20.1927 37.864 17.6937 38.612 14.7697 38.612ZM14.7697 33.512C17.3197 33.512 19.3767 32.373 20.9407 30.095C22.5047 27.783 23.2867 24.468 23.2867 20.15C23.2867 15.832 22.5047 12.534 20.9407 10.256C19.3767 7.944 17.3197 6.788 14.7697 6.788C12.1857 6.788 10.1117 7.944 8.54773 10.256C7.01773 12.534 6.25273 15.832 6.25273 20.15C6.25273 24.468 7.01773 27.783 8.54773 30.095C10.1117 32.373 12.1857 33.512 14.7697 33.512ZM33.5278 38V12.704H38.2198L38.6788 16.478H38.9338C39.6138 15.254 40.6678 14.217 42.0958 13.367C43.5238 12.517 45.1728 12.092 47.0428 12.092C50.1368 12.092 52.4658 13.027 54.0298 14.897C55.5938 16.767 56.3758 19.521 56.3758 23.159V38H50.9698V23.822C50.9698 21.714 50.5278 20.082 49.6438 18.926C48.7598 17.77 47.3658 17.192 45.4618 17.192C43.5918 17.192 42.0278 17.821 40.7698 19.079C39.5458 20.337 38.9338 22.156 38.9338 24.536V38H33.5278ZM74.4199 8.828C73.2299 8.828 72.2269 8.454 71.4109 7.706C70.6289 6.924 70.2379 5.972 70.2379 4.85C70.2379 3.728 70.6289 2.793 71.4109 2.045C72.2269 1.297 73.2299 0.922997 74.4199 0.922997C75.6439 0.922997 76.6469 1.297 77.4289 2.045C78.2449 2.793 78.6529 3.728 78.6529 4.85C78.6529 5.972 78.2449 6.924 77.4289 7.706C76.6469 8.454 75.6439 8.828 74.4199 8.828ZM64.2709 38V33.308H72.2269V19.079C72.2269 17.957 71.6829 17.396 70.5949 17.396H64.9849V12.704H71.5639C73.6719 12.704 75.2019 13.197 76.1539 14.183C77.1399 15.135 77.6329 16.665 77.6329 18.773V33.308H85.5889V38H64.2709ZM94.708 38V1.28H100.114V23.312L109.804 12.704H116.587L106.03 23.924V24.332L117.964 38H111.385L100.114 24.995V38H94.708ZM132.846 38.612C129.786 38.612 127.457 37.677 125.859 35.807C124.295 33.903 123.513 31.149 123.513 27.545V12.704H128.919V26.882C128.919 28.956 129.361 30.588 130.245 31.778C131.163 32.934 132.557 33.512 134.427 33.512C136.297 33.512 137.861 32.883 139.119 31.625C140.377 30.367 141.006 28.548 141.006 26.168V12.704H146.412V38H141.72L141.261 34.226H141.006C140.326 35.45 139.272 36.487 137.844 37.337C136.416 38.187 134.75 38.612 132.846 38.612ZM151.145 38V12.704H155.633L156.092 15.662H156.347C156.789 14.608 157.469 13.758 158.387 13.112C159.305 12.432 160.393 12.092 161.651 12.092C162.875 12.092 163.946 12.398 164.864 13.01C165.782 13.622 166.462 14.506 166.904 15.662H167.108C167.55 14.642 168.247 13.792 169.199 13.112C170.151 12.432 171.324 12.092 172.718 12.092C174.588 12.092 175.999 12.704 176.951 13.928C177.937 15.152 178.43 16.869 178.43 19.079V38H173.228V20.15C173.228 19.13 173.007 18.331 172.565 17.753C172.157 17.141 171.494 16.835 170.576 16.835C169.658 16.835 168.893 17.192 168.281 17.906C167.703 18.62 167.414 19.623 167.414 20.915V38H162.161V20.15C162.161 19.13 161.957 18.331 161.549 17.753C161.141 17.141 160.478 16.835 159.56 16.835C158.642 16.835 157.877 17.192 157.265 17.906C156.653 18.62 156.347 19.623 156.347 20.915V38H151.145ZM192.955 38.612C190.949 38.612 189.266 38.272 187.906 37.592C186.546 36.878 185.526 35.943 184.846 34.787C184.166 33.597 183.826 32.305 183.826 30.911C183.826 28.429 184.727 26.491 186.529 25.097C188.365 23.703 190.949 23.006 194.281 23.006H200.809V22.445C200.809 18.637 199.041 16.733 195.505 16.733C194.043 16.733 192.802 17.056 191.782 17.702C190.796 18.314 190.133 19.317 189.793 20.711H184.387C184.659 18.059 185.798 15.968 187.804 14.438C189.844 12.874 192.411 12.092 195.505 12.092C199.245 12.092 201.965 13.01 203.665 14.846C205.365 16.682 206.215 19.215 206.215 22.445V38H201.625L201.166 34.277H200.809C200.061 35.467 199.126 36.487 198.004 37.337C196.882 38.187 195.199 38.612 192.955 38.612ZM193.975 34.073C196.185 34.073 197.834 33.41 198.922 32.084C200.044 30.724 200.656 29.007 200.758 26.933H194.842C192.904 26.933 191.527 27.256 190.711 27.902C189.929 28.514 189.538 29.381 189.538 30.503C189.538 31.625 189.929 32.509 190.711 33.155C191.527 33.767 192.615 34.073 193.975 34.073Z" fill="#162AC1"/>
<path d="M7.27273 36.368L7.85147 35.5525L7.27273 36.368ZM2.42773 29.993L1.50163 30.3703L2.42773 29.993ZM2.42773 10.307L1.50163 9.9297L2.42773 10.307ZM7.27273 3.932L6.69398 3.11649L6.69398 3.11649L7.27273 3.932ZM22.2667 3.932L21.6817 4.74305L21.688 4.7475L22.2667 3.932ZM27.1117 10.307L28.0378 9.9297L28.0378 9.9297L27.1117 10.307ZM27.1117 29.993L28.0378 30.3703H28.0378L27.1117 29.993ZM22.2667 36.368L21.688 35.5525L21.6817 35.557L22.2667 36.368ZM20.9407 30.095L21.7651 30.661L21.769 30.6553L20.9407 30.095ZM20.9407 10.256L20.1124 10.8163L20.1163 10.822L20.9407 10.256ZM8.54773 10.256L7.71944 9.69569L7.71759 9.69844L8.54773 10.256ZM8.54773 30.095L7.71379 30.6469L7.7185 30.654L7.72333 30.661L8.54773 30.095ZM14.7697 37.612C12.0616 37.612 9.77065 36.9145 7.85147 35.5525L6.69398 37.1835C8.99081 38.8135 11.6979 39.612 14.7697 39.612V37.612ZM7.85147 35.5525C5.92083 34.1824 4.41511 32.2207 3.35382 29.6157L1.50163 30.3703C2.68434 33.2733 4.40862 35.5616 6.69398 37.1835L7.85147 35.5525ZM3.35382 29.6157C2.29222 27.0099 1.74473 23.8634 1.74473 20.15H-0.255273C-0.255273 24.0526 0.319237 27.468 1.50163 30.3703L3.35382 29.6157ZM1.74473 20.15C1.74473 16.4366 2.29222 13.29 3.35382 10.6843L1.50163 9.9297C0.319237 12.8319 -0.255273 16.2474 -0.255273 20.15H1.74473ZM3.35382 10.6843C4.41511 8.07931 5.92083 6.11764 7.85147 4.74751L6.69398 3.11649C4.40862 4.73836 2.68434 7.02669 1.50163 9.9297L3.35382 10.6843ZM7.85147 4.74751C9.77065 3.38551 12.0616 2.688 14.7697 2.688V0.687999C11.6979 0.687999 8.99081 1.48649 6.69398 3.11649L7.85147 4.74751ZM14.7697 2.688C17.515 2.688 19.8018 3.387 21.6817 4.74303L22.8517 3.12097C20.5837 1.48499 17.8724 0.687999 14.7697 0.687999V2.688ZM21.688 4.7475C23.6186 6.11764 25.1243 8.07931 26.1856 10.6843L28.0378 9.9297C26.8551 7.02669 25.1308 4.73836 22.8455 3.11649L21.688 4.7475ZM26.1856 10.6843C27.2472 13.29 27.7947 16.4366 27.7947 20.15H29.7947C29.7947 16.2474 29.2202 12.8319 28.0378 9.9297L26.1856 10.6843ZM27.7947 20.15C27.7947 23.8634 27.2472 27.0099 26.1856 29.6157L28.0378 30.3703C29.2202 27.468 29.7947 24.0526 29.7947 20.15H27.7947ZM26.1856 29.6157C25.1243 32.2207 23.6186 34.1824 21.688 35.5525L22.8455 37.1835C25.1308 35.5616 26.8551 33.2733 28.0378 30.3703L26.1856 29.6157ZM21.6817 35.557C19.8018 36.913 17.515 37.612 14.7697 37.612V39.612C17.8724 39.612 20.5837 38.815 22.8517 37.179L21.6817 35.557ZM14.7697 34.512C17.6804 34.512 20.033 33.1839 21.7651 30.661L20.1163 29.529C18.7205 31.5621 16.959 32.512 14.7697 32.512V34.512ZM21.769 30.6553C23.4907 28.1102 24.2867 24.5663 24.2867 20.15H22.2867C22.2867 24.3697 21.5187 27.4558 20.1124 29.5347L21.769 30.6553ZM24.2867 20.15C24.2867 15.7352 23.4913 12.2042 21.7651 9.68999L20.1163 10.822C21.5181 12.8638 22.2867 15.9288 22.2867 20.15H24.2867ZM21.769 9.69569C20.0397 7.13939 17.6871 5.788 14.7697 5.788V7.788C16.9524 7.788 18.7137 8.74861 20.1124 10.8163L21.769 9.69569ZM14.7697 5.788C11.8235 5.788 9.4518 7.13482 7.71944 9.69569L9.37601 10.8163C10.7717 8.75318 12.548 7.788 14.7697 7.788V5.788ZM7.71759 9.69844C6.03008 12.211 5.25273 15.7383 5.25273 20.15H7.25273C7.25273 15.9257 8.00538 12.857 9.37787 10.8136L7.71759 9.69844ZM5.25273 20.15C5.25273 24.5632 6.03066 28.1035 7.71379 30.6469L9.38166 29.5431C8.00479 27.4625 7.25273 24.3728 7.25273 20.15H5.25273ZM7.72333 30.661C9.45854 33.1884 11.8301 34.512 14.7697 34.512V32.512C12.5414 32.512 10.7649 31.5576 9.37213 29.529L7.72333 30.661ZM33.5278 38H32.5278V39H33.5278V38ZM33.5278 12.704V11.704H32.5278V12.704H33.5278ZM38.2198 12.704L39.2125 12.5833L39.1056 11.704H38.2198V12.704ZM38.6788 16.478L37.6861 16.5987L37.7931 17.478H38.6788V16.478ZM38.9338 16.478V17.478H39.5222L39.808 16.9636L38.9338 16.478ZM42.0958 13.367L42.6073 14.2263L42.0958 13.367ZM54.0298 14.897L53.2627 15.5386L54.0298 14.897ZM56.3758 38V39H57.3758V38H56.3758ZM50.9698 38H49.9698V39H50.9698V38ZM40.7698 19.079L40.0626 18.3718L40.0531 18.3816L40.7698 19.079ZM38.9338 38V39H39.9338V38H38.9338ZM34.5278 38V12.704H32.5278V38H34.5278ZM33.5278 13.704H38.2198V11.704H33.5278V13.704ZM37.2271 12.8247L37.6861 16.5987L39.6715 16.3573L39.2125 12.5833L37.2271 12.8247ZM38.6788 17.478H38.9338V15.478H38.6788V17.478ZM39.808 16.9636C40.3874 15.9207 41.3026 15.0029 42.6073 14.2263L41.5843 12.5077C40.0331 13.4311 38.8402 14.5873 38.0596 15.9924L39.808 16.9636ZM42.6073 14.2263C43.8619 13.4795 45.3298 13.092 47.0428 13.092V11.092C45.0158 11.092 43.1857 11.5545 41.5843 12.5077L42.6073 14.2263ZM47.0428 13.092C49.9269 13.092 51.9379 13.9545 53.2627 15.5386L54.7969 14.2554C52.9937 12.0995 50.3467 11.092 47.0428 11.092V13.092ZM53.2627 15.5386C54.6176 17.1585 55.3758 19.6441 55.3758 23.159H57.3758C57.3758 19.3979 56.57 16.3755 54.7969 14.2554L53.2627 15.5386ZM55.3758 23.159V38H57.3758V23.159H55.3758ZM56.3758 37H50.9698V39H56.3758V37ZM51.9698 38V23.822H49.9698V38H51.9698ZM51.9698 23.822C51.9698 21.5895 51.5036 19.7118 50.4382 18.3186L48.8494 19.5334C49.552 20.4522 49.9698 21.8385 49.9698 23.822H51.9698ZM50.4382 18.3186C49.3094 16.8425 47.5728 16.192 45.4618 16.192V18.192C47.1588 18.192 48.2102 18.6975 48.8494 19.5334L50.4382 18.3186ZM45.4618 16.192C43.3417 16.192 41.5186 16.916 40.0627 18.3719L41.4769 19.7861C42.537 18.726 43.8419 18.192 45.4618 18.192V16.192ZM40.0531 18.3816C38.5906 19.8848 37.9338 21.9903 37.9338 24.536H39.9338C39.9338 22.3217 40.501 20.7892 41.4865 19.7764L40.0531 18.3816ZM37.9338 24.536V38H39.9338V24.536H37.9338ZM38.9338 37H33.5278V39H38.9338V37ZM71.4109 7.706L70.7038 8.41311L70.7191 8.42847L70.7352 8.44315L71.4109 7.706ZM71.4109 2.045L70.7352 1.30784L70.7273 1.31502L70.7197 1.32236L71.4109 2.045ZM77.4289 2.045L76.7377 2.76764L76.7453 2.77498L76.7532 2.78215L77.4289 2.045ZM77.4289 7.706L78.1201 8.42864L78.1208 8.42799L77.4289 7.706ZM64.2709 38H63.2709V39H64.2709V38ZM64.2709 33.308V32.308H63.2709V33.308H64.2709ZM72.2269 33.308V34.308H73.2269V33.308H72.2269ZM64.9849 17.396H63.9849V18.396H64.9849V17.396ZM64.9849 12.704V11.704H63.9849V12.704H64.9849ZM76.1539 14.183L75.4345 14.8776L75.4467 14.8902L75.4593 14.9024L76.1539 14.183ZM77.6329 33.308H76.6329V34.308H77.6329V33.308ZM85.5889 33.308H86.5889V32.308H85.5889V33.308ZM85.5889 38V39H86.5889V38H85.5889ZM74.4199 7.828C73.4596 7.828 72.7036 7.53444 72.0866 6.96884L70.7352 8.44315C71.7502 9.37356 73.0002 9.828 74.4199 9.828V7.828ZM72.118 6.99889C71.5266 6.40747 71.2379 5.71111 71.2379 4.85H69.2379C69.2379 6.23288 69.7312 7.44053 70.7038 8.41311L72.118 6.99889ZM71.2379 4.85C71.2379 3.98962 71.5254 3.31931 72.1021 2.76764L70.7197 1.32236C69.7324 2.26668 69.2379 3.46638 69.2379 4.85H71.2379ZM72.0866 2.78215C72.7036 2.21656 73.4596 1.923 74.4199 1.923V-0.077003C73.0002 -0.077003 71.7502 0.377435 70.7352 1.30784L72.0866 2.78215ZM74.4199 1.923C75.4229 1.923 76.1666 2.2214 76.7377 2.76764L78.1201 1.32236C77.1272 0.372598 75.8649 -0.077003 74.4199 -0.077003V1.923ZM76.7532 2.78215C77.3594 3.33783 77.6529 4.00397 77.6529 4.85H79.6529C79.6529 3.45203 79.1304 2.24817 78.1046 1.30784L76.7532 2.78215ZM77.6529 4.85C77.6529 5.69715 77.3578 6.38906 76.737 6.98401L78.1208 8.42799C79.132 7.45894 79.6529 6.24685 79.6529 4.85H77.6529ZM76.7377 6.98336C76.1666 7.5296 75.4229 7.828 74.4199 7.828V9.828C75.8649 9.828 77.1272 9.3784 78.1201 8.42864L76.7377 6.98336ZM65.2709 38V33.308H63.2709V38H65.2709ZM64.2709 34.308H72.2269V32.308H64.2709V34.308ZM73.2269 33.308V19.079H71.2269V33.308H73.2269ZM73.2269 19.079C73.2269 18.3714 73.0557 17.6557 72.5368 17.1206C72.0124 16.5798 71.301 16.396 70.5949 16.396V18.396C70.9768 18.396 71.0814 18.4927 71.101 18.5129C71.1261 18.5388 71.2269 18.6646 71.2269 19.079H73.2269ZM70.5949 16.396H64.9849V18.396H70.5949V16.396ZM65.9849 17.396V12.704H63.9849V17.396H65.9849ZM64.9849 13.704H71.5639V11.704H64.9849V13.704ZM71.5639 13.704C73.5442 13.704 74.7516 14.1703 75.4345 14.8776L76.8733 13.4884C75.6522 12.2237 73.7996 11.704 71.5639 11.704V13.704ZM75.4593 14.9024C76.1666 15.5853 76.6329 16.7927 76.6329 18.773H78.6329C78.6329 16.5373 78.1132 14.6847 76.8485 13.4636L75.4593 14.9024ZM76.6329 18.773V33.308H78.6329V18.773H76.6329ZM77.6329 34.308H85.5889V32.308H77.6329V34.308ZM84.5889 33.308V38H86.5889V33.308H84.5889ZM85.5889 37H64.2709V39H85.5889V37ZM94.708 38H93.708V39H94.708V38ZM94.708 1.28V0.279999H93.708V1.28H94.708ZM100.114 1.28H101.114V0.279999H100.114V1.28ZM100.114 23.312H99.114V25.8895L100.852 23.9864L100.114 23.312ZM109.804 12.704V11.704H109.363L109.066 12.0296L109.804 12.704ZM116.587 12.704L117.315 13.3893L118.901 11.704H116.587V12.704ZM106.03 23.924L105.302 23.2387L105.03 23.5275V23.924H106.03ZM106.03 24.332H105.03V24.7071L105.277 24.9897L106.03 24.332ZM117.964 38V39H120.165L118.717 37.3423L117.964 38ZM111.385 38L110.629 38.6549L110.928 39H111.385V38ZM100.114 24.995L100.87 24.3401L99.114 22.3143V24.995H100.114ZM100.114 38V39H101.114V38H100.114ZM95.708 38V1.28H93.708V38H95.708ZM94.708 2.28H100.114V0.279999H94.708V2.28ZM99.114 1.28V23.312H101.114V1.28H99.114ZM100.852 23.9864L110.542 13.3784L109.066 12.0296L99.3756 22.6376L100.852 23.9864ZM109.804 13.704H116.587V11.704H109.804V13.704ZM115.859 12.0187L105.302 23.2387L106.758 24.6093L117.315 13.3893L115.859 12.0187ZM105.03 23.924V24.332H107.03V23.924H105.03ZM105.277 24.9897L117.211 38.6577L118.717 37.3423L106.783 23.6743L105.277 24.9897ZM117.964 37H111.385V39H117.964V37ZM112.141 37.3451L100.87 24.3401L99.3583 25.6499L110.629 38.6549L112.141 37.3451ZM99.114 24.995V38H101.114V24.995H99.114ZM100.114 37H94.708V39H100.114V37ZM125.859 35.807L125.086 36.4417L125.092 36.4493L125.099 36.4567L125.859 35.807ZM123.513 12.704V11.704H122.513V12.704H123.513ZM128.919 12.704H129.919V11.704H128.919V12.704ZM130.245 31.778L129.442 32.3743L129.452 32.3873L129.462 32.3999L130.245 31.778ZM139.119 31.625L139.826 32.3321L139.119 31.625ZM141.006 12.704V11.704H140.006V12.704H141.006ZM146.412 12.704H147.412V11.704H146.412V12.704ZM146.412 38V39H147.412V38H146.412ZM141.72 38L140.727 38.1207L140.834 39H141.72V38ZM141.261 34.226L142.254 34.1053L142.147 33.226H141.261V34.226ZM141.006 34.226V33.226H140.418L140.132 33.7404L141.006 34.226ZM137.844 37.337L137.333 36.4777L137.844 37.337ZM132.846 37.612C130.001 37.612 127.982 36.7522 126.619 35.1573L125.099 36.4567C126.932 38.6018 129.571 39.612 132.846 39.612V37.612ZM126.632 35.1723C125.269 33.5137 124.513 31.0215 124.513 27.545H122.513C122.513 31.2765 123.321 34.2923 125.086 36.4417L126.632 35.1723ZM124.513 27.545V12.704H122.513V27.545H124.513ZM123.513 13.704H128.919V11.704H123.513V13.704ZM127.919 12.704V26.882H129.919V12.704H127.919ZM127.919 26.882C127.919 29.0872 128.388 30.9551 129.442 32.3743L131.048 31.1817C130.334 30.2209 129.919 28.8248 129.919 26.882H127.919ZM129.462 32.3999C130.619 33.8567 132.341 34.512 134.427 34.512V32.512C132.773 32.512 131.707 32.0113 131.028 31.1561L129.462 32.3999ZM134.427 34.512C136.547 34.512 138.37 33.788 139.826 32.3321L138.412 30.9179C137.352 31.978 136.047 32.512 134.427 32.512V34.512ZM139.826 32.3321C141.328 30.83 142.006 28.7208 142.006 26.168H140.006C140.006 28.3752 139.426 29.904 138.412 30.9179L139.826 32.3321ZM142.006 26.168V12.704H140.006V26.168H142.006ZM141.006 13.704H146.412V11.704H141.006V13.704ZM145.412 12.704V38H147.412V12.704H145.412ZM146.412 37H141.72V39H146.412V37ZM142.713 37.8793L142.254 34.1053L140.268 34.3467L140.727 38.1207L142.713 37.8793ZM141.261 33.226H141.006V35.226H141.261V33.226ZM140.132 33.7404C139.552 34.7833 138.637 35.7011 137.333 36.4777L138.356 38.1963C139.907 37.2729 141.1 36.1167 141.88 34.7116L140.132 33.7404ZM137.333 36.4777C136.081 37.2229 134.597 37.612 132.846 37.612V39.612C134.903 39.612 136.751 39.1511 138.356 38.1963L137.333 36.4777ZM151.145 38H150.145V39H151.145V38ZM151.145 12.704V11.704H150.145V12.704H151.145ZM155.633 12.704L156.621 12.5507L156.49 11.704H155.633V12.704ZM156.092 15.662L155.104 15.8153L155.235 16.662H156.092V15.662ZM156.347 15.662V16.662H157.012L157.269 16.0487L156.347 15.662ZM158.387 13.112L158.963 13.9298L158.973 13.9228L158.982 13.9156L158.387 13.112ZM164.864 13.01L164.309 13.842V13.8421L164.864 13.01ZM166.904 15.662L165.97 16.0191L166.216 16.662H166.904V15.662ZM167.108 15.662V16.662H167.765L168.026 16.0596L167.108 15.662ZM169.199 13.112L168.618 12.2983V12.2983L169.199 13.112ZM176.951 13.928L176.162 14.5419L176.167 14.5487L176.172 14.5553L176.951 13.928ZM178.43 38V39H179.43V38H178.43ZM173.228 38H172.228V39H173.228V38ZM172.565 17.753L171.733 18.3077L171.751 18.3347L171.771 18.3605L172.565 17.753ZM168.281 17.906L167.522 17.2552L167.513 17.2659L167.504 17.2768L168.281 17.906ZM167.414 38V39H168.414V38H167.414ZM162.161 38H161.161V39H162.161V38ZM161.549 17.753L160.717 18.3077L160.724 18.3188L160.732 18.3297L161.549 17.753ZM157.265 17.906L158.024 18.5568L157.265 17.906ZM156.347 38V39H157.347V38H156.347ZM152.145 38V12.704H150.145V38H152.145ZM151.145 13.704H155.633V11.704H151.145V13.704ZM154.645 12.8573L155.104 15.8153L157.08 15.5087L156.621 12.5507L154.645 12.8573ZM156.092 16.662H156.347V14.662H156.092V16.662ZM157.269 16.0487C157.64 15.1648 158.201 14.4655 158.963 13.9298L157.812 12.2942C156.737 13.0505 155.938 14.0512 155.425 15.2753L157.269 16.0487ZM158.982 13.9156C159.711 13.3761 160.585 13.092 161.651 13.092V11.092C160.202 11.092 158.9 11.4879 157.792 12.3084L158.982 13.9156ZM161.651 13.092C162.7 13.092 163.573 13.3514 164.309 13.842L165.419 12.1779C164.319 11.4446 163.05 11.092 161.651 11.092V13.092ZM164.309 13.8421C165.034 14.3251 165.593 15.0324 165.97 16.0191L167.838 15.3049C167.331 13.9796 166.53 12.9189 165.419 12.1779L164.309 13.8421ZM166.904 16.662H167.108V14.662H166.904V16.662ZM168.026 16.0596C168.392 15.2152 168.968 14.5059 169.78 13.9257L168.618 12.2983C167.526 13.0781 166.709 14.0688 166.191 15.2644L168.026 16.0596ZM169.78 13.9257C170.532 13.3887 171.492 13.092 172.718 13.092V11.092C171.157 11.092 169.77 11.4753 168.618 12.2983L169.78 13.9257ZM172.718 13.092C174.35 13.092 175.439 13.6125 176.162 14.5419L177.74 13.3141C176.559 11.7955 174.826 11.092 172.718 11.092V13.092ZM176.172 14.5553C176.967 15.5417 177.43 17.0061 177.43 19.079H179.43C179.43 16.7319 178.907 14.7623 177.73 13.3007L176.172 14.5553ZM177.43 19.079V38H179.43V19.079H177.43ZM178.43 37H173.228V39H178.43V37ZM174.228 38V20.15H172.228V38H174.228ZM174.228 20.15C174.228 18.9967 173.979 17.9559 173.359 17.1455L171.771 18.3605C172.035 18.7061 172.228 19.2633 172.228 20.15H174.228ZM173.397 17.1983C172.757 16.238 171.734 15.835 170.576 15.835V17.835C171.254 17.835 171.557 18.044 171.733 18.3077L173.397 17.1983ZM170.576 15.835C169.358 15.835 168.319 16.3258 167.522 17.2552L169.04 18.5568C169.468 18.0582 169.958 17.835 170.576 17.835V15.835ZM167.504 17.2768C166.733 18.2289 166.414 19.4855 166.414 20.915H168.414C168.414 19.7605 168.673 19.0111 169.058 18.5352L167.504 17.2768ZM166.414 20.915V38H168.414V20.915H166.414ZM167.414 37H162.161V39H167.414V37ZM163.161 38V20.15H161.161V38H163.161ZM163.161 20.15C163.161 19.0109 162.935 17.9826 162.366 17.1763L160.732 18.3297C160.979 18.6794 161.161 19.2491 161.161 20.15H163.161ZM162.381 17.1983C161.741 16.238 160.718 15.835 159.56 15.835V17.835C160.238 17.835 160.541 18.044 160.717 18.3077L162.381 17.1983ZM159.56 15.835C158.342 15.835 157.303 16.3258 156.506 17.2552L158.024 18.5568C158.452 18.0582 158.942 17.835 159.56 17.835V15.835ZM156.506 17.2552C155.689 18.2083 155.347 19.4735 155.347 20.915H157.347C157.347 19.7725 157.617 19.0317 158.024 18.5568L156.506 17.2552ZM155.347 20.915V38H157.347V20.915H155.347ZM156.347 37H151.145V39H156.347V37ZM187.906 37.592L187.441 38.4774L187.45 38.482L187.459 38.4864L187.906 37.592ZM184.846 34.787L183.978 35.2832L183.984 35.294L184.846 34.787ZM186.529 25.097L185.924 24.3005L185.917 24.306L186.529 25.097ZM200.809 23.006V24.006H201.809V23.006H200.809ZM191.782 17.702L192.31 18.5517L192.317 18.5468L191.782 17.702ZM189.793 20.711V21.711H190.579L190.765 20.948L189.793 20.711ZM184.387 20.711L183.392 20.609L183.279 21.711H184.387V20.711ZM187.804 14.438L188.411 15.2331L188.413 15.2316L187.804 14.438ZM203.665 14.846L204.399 14.1666V14.1666L203.665 14.846ZM206.215 38V39H207.215V38H206.215ZM201.625 38L200.633 38.1224L200.741 39H201.625V38ZM201.166 34.277L202.159 34.1546L202.05 33.277H201.166V34.277ZM200.809 34.277V33.277H200.257L199.963 33.7448L200.809 34.277ZM198.004 37.337L197.4 36.5399L198.004 37.337ZM198.922 32.084L198.151 31.4476L198.149 31.4497L198.922 32.084ZM200.758 26.933L201.757 26.9821L201.809 25.933H200.758V26.933ZM190.711 27.902L191.328 28.6895L191.332 28.686L190.711 27.902ZM190.711 33.155L190.074 33.926L190.092 33.9409L190.111 33.955L190.711 33.155ZM192.955 37.612C191.057 37.612 189.537 37.2896 188.353 36.6976L187.459 38.4864C188.995 39.2544 190.842 39.612 192.955 39.612V37.612ZM188.371 36.7066C187.152 36.0664 186.281 35.253 185.708 34.28L183.984 35.294C184.772 36.633 185.941 37.6896 187.441 38.4774L188.371 36.7066ZM185.714 34.2909C185.122 33.2546 184.826 32.1341 184.826 30.911H182.826C182.826 32.4759 183.21 33.9394 183.978 35.2831L185.714 34.2909ZM184.826 30.911C184.826 28.7067 185.608 27.0739 187.141 25.888L185.917 24.306C183.846 25.9081 182.826 28.1513 182.826 30.911H184.826ZM187.134 25.8934C188.734 24.6788 191.074 24.006 194.281 24.006V22.006C190.825 22.006 187.997 22.7272 185.924 24.3006L187.134 25.8934ZM194.281 24.006H200.809V22.006H194.281V24.006ZM201.809 23.006V22.445H199.809V23.006H201.809ZM201.809 22.445C201.809 20.4045 201.337 18.6878 200.216 17.4805C199.082 16.2593 197.447 15.733 195.505 15.733V17.733C197.099 17.733 198.116 18.1587 198.75 18.8414C199.397 19.5382 199.809 20.6775 199.809 22.445H201.809ZM195.505 15.733C193.894 15.733 192.458 16.0903 191.247 16.8572L192.317 18.5468C193.146 18.0217 194.192 17.733 195.505 17.733V15.733ZM191.255 16.8524C189.996 17.6336 189.208 18.8891 188.822 20.474L190.765 20.948C191.058 19.7449 191.596 18.9944 192.31 18.5516L191.255 16.8524ZM189.793 19.711H184.387V21.711H189.793V19.711ZM185.382 20.813C185.628 18.4183 186.638 16.5853 188.411 15.2331L187.198 13.6429C184.959 15.3507 183.691 17.6997 183.392 20.609L185.382 20.813ZM188.413 15.2316C190.245 13.8271 192.585 13.092 195.505 13.092V11.092C192.237 11.092 189.444 11.9209 187.196 13.6444L188.413 15.2316ZM195.505 13.092C199.105 13.092 201.498 13.9768 202.931 15.5254L204.399 14.1666C202.433 12.0432 199.386 11.092 195.505 11.092V13.092ZM202.931 15.5254C204.415 17.1277 205.215 19.3912 205.215 22.445H207.215C207.215 19.0388 206.315 16.2363 204.399 14.1666L202.931 15.5254ZM205.215 22.445V38H207.215V22.445H205.215ZM206.215 37H201.625V39H206.215V37ZM202.618 37.8776L202.159 34.1546L200.174 34.3994L200.633 38.1224L202.618 37.8776ZM201.166 33.277H200.809V35.277H201.166V33.277ZM199.963 33.7448C199.279 34.8324 198.426 35.7627 197.4 36.5399L198.608 38.1341C199.826 37.2113 200.843 36.1016 201.656 34.8092L199.963 33.7448ZM197.4 36.5399C196.528 37.2005 195.101 37.612 192.955 37.612V39.612C195.297 39.612 197.236 39.1735 198.608 38.1341L197.4 36.5399ZM193.975 35.073C196.391 35.073 198.365 34.3394 199.695 32.7183L198.149 31.4497C197.303 32.4806 195.979 33.073 193.975 33.073V35.073ZM199.694 32.7204C200.976 31.1661 201.646 29.2317 201.757 26.9821L199.759 26.8839C199.666 28.7823 199.113 30.2819 198.151 31.4476L199.694 32.7204ZM200.758 25.933H194.842V27.933H200.758V25.933ZM194.842 25.933C192.848 25.933 191.181 26.2545 190.09 27.118L191.332 28.686C191.873 28.2575 192.96 27.933 194.842 27.933V25.933ZM190.095 27.1145C189.037 27.9424 188.538 29.1189 188.538 30.503H190.538C190.538 29.6431 190.821 29.0856 191.327 28.6895L190.095 27.1145ZM188.538 30.503C188.538 31.8874 189.036 33.0683 190.074 33.926L191.348 32.384C190.822 31.9497 190.538 31.3626 190.538 30.503H188.538ZM190.111 33.955C191.15 34.7341 192.47 35.073 193.975 35.073V33.073C192.76 33.073 191.904 32.7999 191.311 32.355L190.111 33.955Z" fill="#162AC1" mask="url(#path-1-outside-1_2678_7381)"/>
</svg>
